<?xml version="1.0" encoding="utf-8" standalone="no"?>
<!DOCTYPE svg PUBLIC "-//W3C//DTD SVG 1.1//EN"
  "http://www.w3.org/Graphics/SVG/1.1/DTD/svg11.dtd">
<!-- Created with matplotlib (https://matplotlib.org/) -->
<svg height="720pt" version="1.1" viewBox="0 0 864 720" width="864pt" xmlns="http://www.w3.org/2000/svg" xmlns:xlink="http://www.w3.org/1999/xlink">
 <defs>
  <style type="text/css">
*{stroke-linecap:butt;stroke-linejoin:round;}
  </style>
 </defs>
 <g id="figure_1">
  <g id="patch_1">
   <path d="M 0 720 
L 864 720 
L 864 0 
L 0 0 
z
" style="fill:#ffffff;"/>
  </g>
  <g id="axes_1">
   <g id="patch_2">
    <path d="M 108 640.8 
L 777.6 640.8 
L 777.6 86.4 
L 108 86.4 
z
" style="fill:#ffffff;"/>
   </g>
   <g id="matplotlib.axis_1">
    <g id="xtick_1">
     <g id="line2d_1">
      <path clip-path="url(#pe60673161e)" d="M 123.069057 640.8 
L 123.069057 86.4 
" style="fill:none;stroke:#b0b0b0;stroke-linecap:square;stroke-width:0.8;"/>
     </g>
     <g id="line2d_2">
      <defs>
       <path d="M 0 0 
L 0 3.5 
" id="m175fab4902" style="stroke:#000000;stroke-width:0.8;"/>
      </defs>
      <g>
       <use style="stroke:#000000;stroke-width:0.8;" x="123.069057" xlink:href="#m175fab4902" y="640.8"/>
      </g>
     </g>
     <g id="text_1">
      <!-- 03/30 14:00 -->
      <defs>
       <path d="M 31.78125 66.40625 
Q 24.171875 66.40625 20.328125 58.90625 
Q 16.5 51.421875 16.5 36.375 
Q 16.5 21.390625 20.328125 13.890625 
Q 24.171875 6.390625 31.78125 6.390625 
Q 39.453125 6.390625 43.28125 13.890625 
Q 47.125 21.390625 47.125 36.375 
Q 47.125 51.421875 43.28125 58.90625 
Q 39.453125 66.40625 31.78125 66.40625 
z
M 31.78125 74.21875 
Q 44.046875 74.21875 50.515625 64.515625 
Q 56.984375 54.828125 56.984375 36.375 
Q 56.984375 17.96875 50.515625 8.265625 
Q 44.046875 -1.421875 31.78125 -1.421875 
Q 19.53125 -1.421875 13.0625 8.265625 
Q 6.59375 17.96875 6.59375 36.375 
Q 6.59375 54.828125 13.0625 64.515625 
Q 19.53125 74.21875 31.78125 74.21875 
z
" id="DejaVuSans-48"/>
       <path d="M 40.578125 39.3125 
Q 47.65625 37.796875 51.625 33 
Q 55.609375 28.21875 55.609375 21.1875 
Q 55.609375 10.40625 48.1875 4.484375 
Q 40.765625 -1.421875 27.09375 -1.421875 
Q 22.515625 -1.421875 17.65625 -0.515625 
Q 12.796875 0.390625 7.625 2.203125 
L 7.625 11.71875 
Q 11.71875 9.328125 16.59375 8.109375 
Q 21.484375 6.890625 26.8125 6.890625 
Q 36.078125 6.890625 40.9375 10.546875 
Q 45.796875 14.203125 45.796875 21.1875 
Q 45.796875 27.640625 41.28125 31.265625 
Q 36.765625 34.90625 28.71875 34.90625 
L 20.21875 34.90625 
L 20.21875 43.015625 
L 29.109375 43.015625 
Q 36.375 43.015625 40.234375 45.921875 
Q 44.09375 48.828125 44.09375 54.296875 
Q 44.09375 59.90625 40.109375 62.90625 
Q 36.140625 65.921875 28.71875 65.921875 
Q 24.65625 65.921875 20.015625 65.03125 
Q 15.375 64.15625 9.8125 62.3125 
L 9.8125 71.09375 
Q 15.4375 72.65625 20.34375 73.4375 
Q 25.25 74.21875 29.59375 74.21875 
Q 40.828125 74.21875 47.359375 69.109375 
Q 53.90625 64.015625 53.90625 55.328125 
Q 53.90625 49.265625 50.4375 45.09375 
Q 46.96875 40.921875 40.578125 39.3125 
z
" id="DejaVuSans-51"/>
       <path d="M 25.390625 72.90625 
L 33.6875 72.90625 
L 8.296875 -9.28125 
L 0 -9.28125 
z
" id="DejaVuSans-47"/>
       <path id="DejaVuSans-32"/>
       <path d="M 12.40625 8.296875 
L 28.515625 8.296875 
L 28.515625 63.921875 
L 10.984375 60.40625 
L 10.984375 69.390625 
L 28.421875 72.90625 
L 38.28125 72.90625 
L 38.28125 8.296875 
L 54.390625 8.296875 
L 54.390625 0 
L 12.40625 0 
z
" id="DejaVuSans-49"/>
       <path d="M 37.796875 64.3125 
L 12.890625 25.390625 
L 37.796875 25.390625 
z
M 35.203125 72.90625 
L 47.609375 72.90625 
L 47.609375 25.390625 
L 58.015625 25.390625 
L 58.015625 17.1875 
L 47.609375 17.1875 
L 47.609375 0 
L 37.796875 0 
L 37.796875 17.1875 
L 4.890625 17.1875 
L 4.890625 26.703125 
z
" id="DejaVuSans-52"/>
       <path d="M 11.71875 12.40625 
L 22.015625 12.40625 
L 22.015625 0 
L 11.71875 0 
z
M 11.71875 51.703125 
L 22.015625 51.703125 
L 22.015625 39.3125 
L 11.71875 39.3125 
z
" id="DejaVuSans-58"/>
      </defs>
      <g transform="translate(103.51866 696.176048)rotate(-45)scale(0.1 -0.1)">
       <use xlink:href="#DejaVuSans-48"/>
       <use x="63.623047" xlink:href="#DejaVuSans-51"/>
       <use x="127.246094" xlink:href="#DejaVuSans-47"/>
       <use x="160.9375" xlink:href="#DejaVuSans-51"/>
       <use x="224.560547" xlink:href="#DejaVuSans-48"/>
       <use x="288.183594" xlink:href="#DejaVuSans-32"/>
       <use x="319.970703" xlink:href="#DejaVuSans-49"/>
       <use x="383.59375" xlink:href="#DejaVuSans-52"/>
       <use x="447.216797" xlink:href="#DejaVuSans-58"/>
       <use x="480.908203" xlink:href="#DejaVuSans-48"/>
       <use x="544.53125" xlink:href="#DejaVuSans-48"/>
      </g>
     </g>
    </g>
    <g id="xtick_2">
     <g id="line2d_3">
      <path clip-path="url(#pe60673161e)" d="M 151.782152 640.8 
L 151.782152 86.4 
" style="fill:none;stroke:#b0b0b0;stroke-linecap:square;stroke-width:0.8;"/>
     </g>
     <g id="line2d_4">
      <g>
       <use style="stroke:#000000;stroke-width:0.8;" x="151.782152" xlink:href="#m175fab4902" y="640.8"/>
      </g>
     </g>
     <g id="text_2">
      <!-- 03/30 17:00 -->
      <defs>
       <path d="M 8.203125 72.90625 
L 55.078125 72.90625 
L 55.078125 68.703125 
L 28.609375 0 
L 18.3125 0 
L 43.21875 64.59375 
L 8.203125 64.59375 
z
" id="DejaVuSans-55"/>
      </defs>
      <g transform="translate(132.231754 696.176048)rotate(-45)scale(0.1 -0.1)">
       <use xlink:href="#DejaVuSans-48"/>
       <use x="63.623047" xlink:href="#DejaVuSans-51"/>
       <use x="127.246094" xlink:href="#DejaVuSans-47"/>
       <use x="160.9375" xlink:href="#DejaVuSans-51"/>
       <use x="224.560547" xlink:href="#DejaVuSans-48"/>
       <use x="288.183594" xlink:href="#DejaVuSans-32"/>
       <use x="319.970703" xlink:href="#DejaVuSans-49"/>
       <use x="383.59375" xlink:href="#DejaVuSans-55"/>
       <use x="447.216797" xlink:href="#DejaVuSans-58"/>
       <use x="480.908203" xlink:href="#DejaVuSans-48"/>
       <use x="544.53125" xlink:href="#DejaVuSans-48"/>
      </g>
     </g>
    </g>
    <g id="xtick_3">
     <g id="line2d_5">
      <path clip-path="url(#pe60673161e)" d="M 180.495247 640.8 
L 180.495247 86.4 
" style="fill:none;stroke:#b0b0b0;stroke-linecap:square;stroke-width:0.8;"/>
     </g>
     <g id="line2d_6">
      <g>
       <use style="stroke:#000000;stroke-width:0.8;" x="180.495247" xlink:href="#m175fab4902" y="640.8"/>
      </g>
     </g>
     <g id="text_3">
      <!-- 03/30 20:00 -->
      <defs>
       <path d="M 19.1875 8.296875 
L 53.609375 8.296875 
L 53.609375 0 
L 7.328125 0 
L 7.328125 8.296875 
Q 12.9375 14.109375 22.625 23.890625 
Q 32.328125 33.6875 34.8125 36.53125 
Q 39.546875 41.84375 41.421875 45.53125 
Q 43.3125 49.21875 43.3125 52.78125 
Q 43.3125 58.59375 39.234375 62.25 
Q 35.15625 65.921875 28.609375 65.921875 
Q 23.96875 65.921875 18.8125 64.3125 
Q 13.671875 62.703125 7.8125 59.421875 
L 7.8125 69.390625 
Q 13.765625 71.78125 18.9375 73 
Q 24.125 74.21875 28.421875 74.21875 
Q 39.75 74.21875 46.484375 68.546875 
Q 53.21875 62.890625 53.21875 53.421875 
Q 53.21875 48.921875 51.53125 44.890625 
Q 49.859375 40.875 45.40625 35.40625 
Q 44.1875 33.984375 37.640625 27.21875 
Q 31.109375 20.453125 19.1875 8.296875 
z
" id="DejaVuSans-50"/>
      </defs>
      <g transform="translate(160.944849 696.176048)rotate(-45)scale(0.1 -0.1)">
       <use xlink:href="#DejaVuSans-48"/>
       <use x="63.623047" xlink:href="#DejaVuSans-51"/>
       <use x="127.246094" xlink:href="#DejaVuSans-47"/>
       <use x="160.9375" xlink:href="#DejaVuSans-51"/>
       <use x="224.560547" xlink:href="#DejaVuSans-48"/>
       <use x="288.183594" xlink:href="#DejaVuSans-32"/>
       <use x="319.970703" xlink:href="#DejaVuSans-50"/>
       <use x="383.59375" xlink:href="#DejaVuSans-48"/>
       <use x="447.216797" xlink:href="#DejaVuSans-58"/>
       <use x="480.908203" xlink:href="#DejaVuSans-48"/>
       <use x="544.53125" xlink:href="#DejaVuSans-48"/>
      </g>
     </g>
    </g>
    <g id="xtick_4">
     <g id="line2d_7">
      <path clip-path="url(#pe60673161e)" d="M 209.208341 640.8 
L 209.208341 86.4 
" style="fill:none;stroke:#b0b0b0;stroke-linecap:square;stroke-width:0.8;"/>
     </g>
     <g id="line2d_8">
      <g>
       <use style="stroke:#000000;stroke-width:0.8;" x="209.208341" xlink:href="#m175fab4902" y="640.8"/>
      </g>
     </g>
     <g id="text_4">
      <!-- 03/30 23:00 -->
      <g transform="translate(189.657943 696.176048)rotate(-45)scale(0.1 -0.1)">
       <use xlink:href="#DejaVuSans-48"/>
       <use x="63.623047" xlink:href="#DejaVuSans-51"/>
       <use x="127.246094" xlink:href="#DejaVuSans-47"/>
       <use x="160.9375" xlink:href="#DejaVuSans-51"/>
       <use x="224.560547" xlink:href="#DejaVuSans-48"/>
       <use x="288.183594" xlink:href="#DejaVuSans-32"/>
       <use x="319.970703" xlink:href="#DejaVuSans-50"/>
       <use x="383.59375" xlink:href="#DejaVuSans-51"/>
       <use x="447.216797" xlink:href="#DejaVuSans-58"/>
       <use x="480.908203" xlink:href="#DejaVuSans-48"/>
       <use x="544.53125" xlink:href="#DejaVuSans-48"/>
      </g>
     </g>
    </g>
    <g id="xtick_5">
     <g id="line2d_9">
      <path clip-path="url(#pe60673161e)" d="M 237.921436 640.8 
L 237.921436 86.4 
" style="fill:none;stroke:#b0b0b0;stroke-linecap:square;stroke-width:0.8;"/>
     </g>
     <g id="line2d_10">
      <g>
       <use style="stroke:#000000;stroke-width:0.8;" x="237.921436" xlink:href="#m175fab4902" y="640.8"/>
      </g>
     </g>
     <g id="text_5">
      <!-- 03/31 02:00 -->
      <g transform="translate(218.371038 696.176048)rotate(-45)scale(0.1 -0.1)">
       <use xlink:href="#DejaVuSans-48"/>
       <use x="63.623047" xlink:href="#DejaVuSans-51"/>
       <use x="127.246094" xlink:href="#DejaVuSans-47"/>
       <use x="160.9375" xlink:href="#DejaVuSans-51"/>
       <use x="224.560547" xlink:href="#DejaVuSans-49"/>
       <use x="288.183594" xlink:href="#DejaVuSans-32"/>
       <use x="319.970703" xlink:href="#DejaVuSans-48"/>
       <use x="383.59375" xlink:href="#DejaVuSans-50"/>
       <use x="447.216797" xlink:href="#DejaVuSans-58"/>
       <use x="480.908203" xlink:href="#DejaVuSans-48"/>
       <use x="544.53125" xlink:href="#DejaVuSans-48"/>
      </g>
     </g>
    </g>
    <g id="xtick_6">
     <g id="line2d_11">
      <path clip-path="url(#pe60673161e)" d="M 266.63453 640.8 
L 266.63453 86.4 
" style="fill:none;stroke:#b0b0b0;stroke-linecap:square;stroke-width:0.8;"/>
     </g>
     <g id="line2d_12">
      <g>
       <use style="stroke:#000000;stroke-width:0.8;" x="266.63453" xlink:href="#m175fab4902" y="640.8"/>
      </g>
     </g>
     <g id="text_6">
      <!-- 03/31 05:00 -->
      <defs>
       <path d="M 10.796875 72.90625 
L 49.515625 72.90625 
L 49.515625 64.59375 
L 19.828125 64.59375 
L 19.828125 46.734375 
Q 21.96875 47.46875 24.109375 47.828125 
Q 26.265625 48.1875 28.421875 48.1875 
Q 40.625 48.1875 47.75 41.5 
Q 54.890625 34.8125 54.890625 23.390625 
Q 54.890625 11.625 47.5625 5.09375 
Q 40.234375 -1.421875 26.90625 -1.421875 
Q 22.3125 -1.421875 17.546875 -0.640625 
Q 12.796875 0.140625 7.71875 1.703125 
L 7.71875 11.625 
Q 12.109375 9.234375 16.796875 8.0625 
Q 21.484375 6.890625 26.703125 6.890625 
Q 35.15625 6.890625 40.078125 11.328125 
Q 45.015625 15.765625 45.015625 23.390625 
Q 45.015625 31 40.078125 35.4375 
Q 35.15625 39.890625 26.703125 39.890625 
Q 22.75 39.890625 18.8125 39.015625 
Q 14.890625 38.140625 10.796875 36.28125 
z
" id="DejaVuSans-53"/>
      </defs>
      <g transform="translate(247.084133 696.176048)rotate(-45)scale(0.1 -0.1)">
       <use xlink:href="#DejaVuSans-48"/>
       <use x="63.623047" xlink:href="#DejaVuSans-51"/>
       <use x="127.246094" xlink:href="#DejaVuSans-47"/>
       <use x="160.9375" xlink:href="#DejaVuSans-51"/>
       <use x="224.560547" xlink:href="#DejaVuSans-49"/>
       <use x="288.183594" xlink:href="#DejaVuSans-32"/>
       <use x="319.970703" xlink:href="#DejaVuSans-48"/>
       <use x="383.59375" xlink:href="#DejaVuSans-53"/>
       <use x="447.216797" xlink:href="#DejaVuSans-58"/>
       <use x="480.908203" xlink:href="#DejaVuSans-48"/>
       <use x="544.53125" xlink:href="#DejaVuSans-48"/>
      </g>
     </g>
    </g>
    <g id="xtick_7">
     <g id="line2d_13">
      <path clip-path="url(#pe60673161e)" d="M 295.347625 640.8 
L 295.347625 86.4 
" style="fill:none;stroke:#b0b0b0;stroke-linecap:square;stroke-width:0.8;"/>
     </g>
     <g id="line2d_14">
      <g>
       <use style="stroke:#000000;stroke-width:0.8;" x="295.347625" xlink:href="#m175fab4902" y="640.8"/>
      </g>
     </g>
     <g id="text_7">
      <!-- 03/31 08:00 -->
      <defs>
       <path d="M 31.78125 34.625 
Q 24.75 34.625 20.71875 30.859375 
Q 16.703125 27.09375 16.703125 20.515625 
Q 16.703125 13.921875 20.71875 10.15625 
Q 24.75 6.390625 31.78125 6.390625 
Q 38.8125 6.390625 42.859375 10.171875 
Q 46.921875 13.96875 46.921875 20.515625 
Q 46.921875 27.09375 42.890625 30.859375 
Q 38.875 34.625 31.78125 34.625 
z
M 21.921875 38.8125 
Q 15.578125 40.375 12.03125 44.71875 
Q 8.5 49.078125 8.5 55.328125 
Q 8.5 64.0625 14.71875 69.140625 
Q 20.953125 74.21875 31.78125 74.21875 
Q 42.671875 74.21875 48.875 69.140625 
Q 55.078125 64.0625 55.078125 55.328125 
Q 55.078125 49.078125 51.53125 44.71875 
Q 48 40.375 41.703125 38.8125 
Q 48.828125 37.15625 52.796875 32.3125 
Q 56.78125 27.484375 56.78125 20.515625 
Q 56.78125 9.90625 50.3125 4.234375 
Q 43.84375 -1.421875 31.78125 -1.421875 
Q 19.734375 -1.421875 13.25 4.234375 
Q 6.78125 9.90625 6.78125 20.515625 
Q 6.78125 27.484375 10.78125 32.3125 
Q 14.796875 37.15625 21.921875 38.8125 
z
M 18.3125 54.390625 
Q 18.3125 48.734375 21.84375 45.5625 
Q 25.390625 42.390625 31.78125 42.390625 
Q 38.140625 42.390625 41.71875 45.5625 
Q 45.3125 48.734375 45.3125 54.390625 
Q 45.3125 60.0625 41.71875 63.234375 
Q 38.140625 66.40625 31.78125 66.40625 
Q 25.390625 66.40625 21.84375 63.234375 
Q 18.3125 60.0625 18.3125 54.390625 
z
" id="DejaVuSans-56"/>
      </defs>
      <g transform="translate(275.797227 696.176048)rotate(-45)scale(0.1 -0.1)">
       <use xlink:href="#DejaVuSans-48"/>
       <use x="63.623047" xlink:href="#DejaVuSans-51"/>
       <use x="127.246094" xlink:href="#DejaVuSans-47"/>
       <use x="160.9375" xlink:href="#DejaVuSans-51"/>
       <use x="224.560547" xlink:href="#DejaVuSans-49"/>
       <use x="288.183594" xlink:href="#DejaVuSans-32"/>
       <use x="319.970703" xlink:href="#DejaVuSans-48"/>
       <use x="383.59375" xlink:href="#DejaVuSans-56"/>
       <use x="447.216797" xlink:href="#DejaVuSans-58"/>
       <use x="480.908203" xlink:href="#DejaVuSans-48"/>
       <use x="544.53125" xlink:href="#DejaVuSans-48"/>
      </g>
     </g>
    </g>
    <g id="xtick_8">
     <g id="line2d_15">
      <path clip-path="url(#pe60673161e)" d="M 324.060719 640.8 
L 324.060719 86.4 
" style="fill:none;stroke:#b0b0b0;stroke-linecap:square;stroke-width:0.8;"/>
     </g>
     <g id="line2d_16">
      <g>
       <use style="stroke:#000000;stroke-width:0.8;" x="324.060719" xlink:href="#m175fab4902" y="640.8"/>
      </g>
     </g>
     <g id="text_8">
      <!-- 03/31 11:00 -->
      <g transform="translate(304.510322 696.176048)rotate(-45)scale(0.1 -0.1)">
       <use xlink:href="#DejaVuSans-48"/>
       <use x="63.623047" xlink:href="#DejaVuSans-51"/>
       <use x="127.246094" xlink:href="#DejaVuSans-47"/>
       <use x="160.9375" xlink:href="#DejaVuSans-51"/>
       <use x="224.560547" xlink:href="#DejaVuSans-49"/>
       <use x="288.183594" xlink:href="#DejaVuSans-32"/>
       <use x="319.970703" xlink:href="#DejaVuSans-49"/>
       <use x="383.59375" xlink:href="#DejaVuSans-49"/>
       <use x="447.216797" xlink:href="#DejaVuSans-58"/>
       <use x="480.908203" xlink:href="#DejaVuSans-48"/>
       <use x="544.53125" xlink:href="#DejaVuSans-48"/>
      </g>
     </g>
    </g>
    <g id="xtick_9">
     <g id="line2d_17">
      <path clip-path="url(#pe60673161e)" d="M 352.773814 640.8 
L 352.773814 86.4 
" style="fill:none;stroke:#b0b0b0;stroke-linecap:square;stroke-width:0.8;"/>
     </g>
     <g id="line2d_18">
      <g>
       <use style="stroke:#000000;stroke-width:0.8;" x="352.773814" xlink:href="#m175fab4902" y="640.8"/>
      </g>
     </g>
     <g id="text_9">
      <!-- 03/31 14:00 -->
      <g transform="translate(333.223416 696.176048)rotate(-45)scale(0.1 -0.1)">
       <use xlink:href="#DejaVuSans-48"/>
       <use x="63.623047" xlink:href="#DejaVuSans-51"/>
       <use x="127.246094" xlink:href="#DejaVuSans-47"/>
       <use x="160.9375" xlink:href="#DejaVuSans-51"/>
       <use x="224.560547" xlink:href="#DejaVuSans-49"/>
       <use x="288.183594" xlink:href="#DejaVuSans-32"/>
       <use x="319.970703" xlink:href="#DejaVuSans-49"/>
       <use x="383.59375" xlink:href="#DejaVuSans-52"/>
       <use x="447.216797" xlink:href="#DejaVuSans-58"/>
       <use x="480.908203" xlink:href="#DejaVuSans-48"/>
       <use x="544.53125" xlink:href="#DejaVuSans-48"/>
      </g>
     </g>
    </g>
    <g id="xtick_10">
     <g id="line2d_19">
      <path clip-path="url(#pe60673161e)" d="M 381.486909 640.8 
L 381.486909 86.4 
" style="fill:none;stroke:#b0b0b0;stroke-linecap:square;stroke-width:0.8;"/>
     </g>
     <g id="line2d_20">
      <g>
       <use style="stroke:#000000;stroke-width:0.8;" x="381.486909" xlink:href="#m175fab4902" y="640.8"/>
      </g>
     </g>
     <g id="text_10">
      <!-- 03/31 17:00 -->
      <g transform="translate(361.936511 696.176048)rotate(-45)scale(0.1 -0.1)">
       <use xlink:href="#DejaVuSans-48"/>
       <use x="63.623047" xlink:href="#DejaVuSans-51"/>
       <use x="127.246094" xlink:href="#DejaVuSans-47"/>
       <use x="160.9375" xlink:href="#DejaVuSans-51"/>
       <use x="224.560547" xlink:href="#DejaVuSans-49"/>
       <use x="288.183594" xlink:href="#DejaVuSans-32"/>
       <use x="319.970703" xlink:href="#DejaVuSans-49"/>
       <use x="383.59375" xlink:href="#DejaVuSans-55"/>
       <use x="447.216797" xlink:href="#DejaVuSans-58"/>
       <use x="480.908203" xlink:href="#DejaVuSans-48"/>
       <use x="544.53125" xlink:href="#DejaVuSans-48"/>
      </g>
     </g>
    </g>
    <g id="xtick_11">
     <g id="line2d_21">
      <path clip-path="url(#pe60673161e)" d="M 410.200003 640.8 
L 410.200003 86.4 
" style="fill:none;stroke:#b0b0b0;stroke-linecap:square;stroke-width:0.8;"/>
     </g>
     <g id="line2d_22">
      <g>
       <use style="stroke:#000000;stroke-width:0.8;" x="410.200003" xlink:href="#m175fab4902" y="640.8"/>
      </g>
     </g>
     <g id="text_11">
      <!-- 03/31 20:00 -->
      <g transform="translate(390.649606 696.176048)rotate(-45)scale(0.1 -0.1)">
       <use xlink:href="#DejaVuSans-48"/>
       <use x="63.623047" xlink:href="#DejaVuSans-51"/>
       <use x="127.246094" xlink:href="#DejaVuSans-47"/>
       <use x="160.9375" xlink:href="#DejaVuSans-51"/>
       <use x="224.560547" xlink:href="#DejaVuSans-49"/>
       <use x="288.183594" xlink:href="#DejaVuSans-32"/>
       <use x="319.970703" xlink:href="#DejaVuSans-50"/>
       <use x="383.59375" xlink:href="#DejaVuSans-48"/>
       <use x="447.216797" xlink:href="#DejaVuSans-58"/>
       <use x="480.908203" xlink:href="#DejaVuSans-48"/>
       <use x="544.53125" xlink:href="#DejaVuSans-48"/>
      </g>
     </g>
    </g>
    <g id="xtick_12">
     <g id="line2d_23">
      <path clip-path="url(#pe60673161e)" d="M 438.913098 640.8 
L 438.913098 86.4 
" style="fill:none;stroke:#b0b0b0;stroke-linecap:square;stroke-width:0.8;"/>
     </g>
     <g id="line2d_24">
      <g>
       <use style="stroke:#000000;stroke-width:0.8;" x="438.913098" xlink:href="#m175fab4902" y="640.8"/>
      </g>
     </g>
     <g id="text_12">
      <!-- 03/31 23:00 -->
      <g transform="translate(419.3627 696.176048)rotate(-45)scale(0.1 -0.1)">
       <use xlink:href="#DejaVuSans-48"/>
       <use x="63.623047" xlink:href="#DejaVuSans-51"/>
       <use x="127.246094" xlink:href="#DejaVuSans-47"/>
       <use x="160.9375" xlink:href="#DejaVuSans-51"/>
       <use x="224.560547" xlink:href="#DejaVuSans-49"/>
       <use x="288.183594" xlink:href="#DejaVuSans-32"/>
       <use x="319.970703" xlink:href="#DejaVuSans-50"/>
       <use x="383.59375" xlink:href="#DejaVuSans-51"/>
       <use x="447.216797" xlink:href="#DejaVuSans-58"/>
       <use x="480.908203" xlink:href="#DejaVuSans-48"/>
       <use x="544.53125" xlink:href="#DejaVuSans-48"/>
      </g>
     </g>
    </g>
    <g id="xtick_13">
     <g id="line2d_25">
      <path clip-path="url(#pe60673161e)" d="M 467.626192 640.8 
L 467.626192 86.4 
" style="fill:none;stroke:#b0b0b0;stroke-linecap:square;stroke-width:0.8;"/>
     </g>
     <g id="line2d_26">
      <g>
       <use style="stroke:#000000;stroke-width:0.8;" x="467.626192" xlink:href="#m175fab4902" y="640.8"/>
      </g>
     </g>
     <g id="text_13">
      <!-- 04/01 02:00 -->
      <g transform="translate(448.075795 696.176048)rotate(-45)scale(0.1 -0.1)">
       <use xlink:href="#DejaVuSans-48"/>
       <use x="63.623047" xlink:href="#DejaVuSans-52"/>
       <use x="127.246094" xlink:href="#DejaVuSans-47"/>
       <use x="160.9375" xlink:href="#DejaVuSans-48"/>
       <use x="224.560547" xlink:href="#DejaVuSans-49"/>
       <use x="288.183594" xlink:href="#DejaVuSans-32"/>
       <use x="319.970703" xlink:href="#DejaVuSans-48"/>
       <use x="383.59375" xlink:href="#DejaVuSans-50"/>
       <use x="447.216797" xlink:href="#DejaVuSans-58"/>
       <use x="480.908203" xlink:href="#DejaVuSans-48"/>
       <use x="544.53125" xlink:href="#DejaVuSans-48"/>
      </g>
     </g>
    </g>
    <g id="xtick_14">
     <g id="line2d_27">
      <path clip-path="url(#pe60673161e)" d="M 496.339287 640.8 
L 496.339287 86.4 
" style="fill:none;stroke:#b0b0b0;stroke-linecap:square;stroke-width:0.8;"/>
     </g>
     <g id="line2d_28">
      <g>
       <use style="stroke:#000000;stroke-width:0.8;" x="496.339287" xlink:href="#m175fab4902" y="640.8"/>
      </g>
     </g>
     <g id="text_14">
      <!-- 04/01 05:00 -->
      <g transform="translate(476.788889 696.176048)rotate(-45)scale(0.1 -0.1)">
       <use xlink:href="#DejaVuSans-48"/>
       <use x="63.623047" xlink:href="#DejaVuSans-52"/>
       <use x="127.246094" xlink:href="#DejaVuSans-47"/>
       <use x="160.9375" xlink:href="#DejaVuSans-48"/>
       <use x="224.560547" xlink:href="#DejaVuSans-49"/>
       <use x="288.183594" xlink:href="#DejaVuSans-32"/>
       <use x="319.970703" xlink:href="#DejaVuSans-48"/>
       <use x="383.59375" xlink:href="#DejaVuSans-53"/>
       <use x="447.216797" xlink:href="#DejaVuSans-58"/>
       <use x="480.908203" xlink:href="#DejaVuSans-48"/>
       <use x="544.53125" xlink:href="#DejaVuSans-48"/>
      </g>
     </g>
    </g>
    <g id="xtick_15">
     <g id="line2d_29">
      <path clip-path="url(#pe60673161e)" d="M 525.052381 640.8 
L 525.052381 86.4 
" style="fill:none;stroke:#b0b0b0;stroke-linecap:square;stroke-width:0.8;"/>
     </g>
     <g id="line2d_30">
      <g>
       <use style="stroke:#000000;stroke-width:0.8;" x="525.052381" xlink:href="#m175fab4902" y="640.8"/>
      </g>
     </g>
     <g id="text_15">
      <!-- 04/01 08:00 -->
      <g transform="translate(505.501984 696.176048)rotate(-45)scale(0.1 -0.1)">
       <use xlink:href="#DejaVuSans-48"/>
       <use x="63.623047" xlink:href="#DejaVuSans-52"/>
       <use x="127.246094" xlink:href="#DejaVuSans-47"/>
       <use x="160.9375" xlink:href="#DejaVuSans-48"/>
       <use x="224.560547" xlink:href="#DejaVuSans-49"/>
       <use x="288.183594" xlink:href="#DejaVuSans-32"/>
       <use x="319.970703" xlink:href="#DejaVuSans-48"/>
       <use x="383.59375" xlink:href="#DejaVuSans-56"/>
       <use x="447.216797" xlink:href="#DejaVuSans-58"/>
       <use x="480.908203" xlink:href="#DejaVuSans-48"/>
       <use x="544.53125" xlink:href="#DejaVuSans-48"/>
      </g>
     </g>
    </g>
    <g id="xtick_16">
     <g id="line2d_31">
      <path clip-path="url(#pe60673161e)" d="M 553.765476 640.8 
L 553.765476 86.4 
" style="fill:none;stroke:#b0b0b0;stroke-linecap:square;stroke-width:0.8;"/>
     </g>
     <g id="line2d_32">
      <g>
       <use style="stroke:#000000;stroke-width:0.8;" x="553.765476" xlink:href="#m175fab4902" y="640.8"/>
      </g>
     </g>
     <g id="text_16">
      <!-- 04/01 11:00 -->
      <g transform="translate(534.215078 696.176048)rotate(-45)scale(0.1 -0.1)">
       <use xlink:href="#DejaVuSans-48"/>
       <use x="63.623047" xlink:href="#DejaVuSans-52"/>
       <use x="127.246094" xlink:href="#DejaVuSans-47"/>
       <use x="160.9375" xlink:href="#DejaVuSans-48"/>
       <use x="224.560547" xlink:href="#DejaVuSans-49"/>
       <use x="288.183594" xlink:href="#DejaVuSans-32"/>
       <use x="319.970703" xlink:href="#DejaVuSans-49"/>
       <use x="383.59375" xlink:href="#DejaVuSans-49"/>
       <use x="447.216797" xlink:href="#DejaVuSans-58"/>
       <use x="480.908203" xlink:href="#DejaVuSans-48"/>
       <use x="544.53125" xlink:href="#DejaVuSans-48"/>
      </g>
     </g>
    </g>
    <g id="xtick_17">
     <g id="line2d_33">
      <path clip-path="url(#pe60673161e)" d="M 582.478571 640.8 
L 582.478571 86.4 
" style="fill:none;stroke:#b0b0b0;stroke-linecap:square;stroke-width:0.8;"/>
     </g>
     <g id="line2d_34">
      <g>
       <use style="stroke:#000000;stroke-width:0.8;" x="582.478571" xlink:href="#m175fab4902" y="640.8"/>
      </g>
     </g>
     <g id="text_17">
      <!-- 04/01 14:00 -->
      <g transform="translate(562.928173 696.176048)rotate(-45)scale(0.1 -0.1)">
       <use xlink:href="#DejaVuSans-48"/>
       <use x="63.623047" xlink:href="#DejaVuSans-52"/>
       <use x="127.246094" xlink:href="#DejaVuSans-47"/>
       <use x="160.9375" xlink:href="#DejaVuSans-48"/>
       <use x="224.560547" xlink:href="#DejaVuSans-49"/>
       <use x="288.183594" xlink:href="#DejaVuSans-32"/>
       <use x="319.970703" xlink:href="#DejaVuSans-49"/>
       <use x="383.59375" xlink:href="#DejaVuSans-52"/>
       <use x="447.216797" xlink:href="#DejaVuSans-58"/>
       <use x="480.908203" xlink:href="#DejaVuSans-48"/>
       <use x="544.53125" xlink:href="#DejaVuSans-48"/>
      </g>
     </g>
    </g>
    <g id="xtick_18">
     <g id="line2d_35">
      <path clip-path="url(#pe60673161e)" d="M 611.191665 640.8 
L 611.191665 86.4 
" style="fill:none;stroke:#b0b0b0;stroke-linecap:square;stroke-width:0.8;"/>
     </g>
     <g id="line2d_36">
      <g>
       <use style="stroke:#000000;stroke-width:0.8;" x="611.191665" xlink:href="#m175fab4902" y="640.8"/>
      </g>
     </g>
     <g id="text_18">
      <!-- 04/01 17:00 -->
      <g transform="translate(591.641268 696.176048)rotate(-45)scale(0.1 -0.1)">
       <use xlink:href="#DejaVuSans-48"/>
       <use x="63.623047" xlink:href="#DejaVuSans-52"/>
       <use x="127.246094" xlink:href="#DejaVuSans-47"/>
       <use x="160.9375" xlink:href="#DejaVuSans-48"/>
       <use x="224.560547" xlink:href="#DejaVuSans-49"/>
       <use x="288.183594" xlink:href="#DejaVuSans-32"/>
       <use x="319.970703" xlink:href="#DejaVuSans-49"/>
       <use x="383.59375" xlink:href="#DejaVuSans-55"/>
       <use x="447.216797" xlink:href="#DejaVuSans-58"/>
       <use x="480.908203" xlink:href="#DejaVuSans-48"/>
       <use x="544.53125" xlink:href="#DejaVuSans-48"/>
      </g>
     </g>
    </g>
    <g id="xtick_19">
     <g id="line2d_37">
      <path clip-path="url(#pe60673161e)" d="M 639.90476 640.8 
L 639.90476 86.4 
" style="fill:none;stroke:#b0b0b0;stroke-linecap:square;stroke-width:0.8;"/>
     </g>
     <g id="line2d_38">
      <g>
       <use style="stroke:#000000;stroke-width:0.8;" x="639.90476" xlink:href="#m175fab4902" y="640.8"/>
      </g>
     </g>
     <g id="text_19">
      <!-- 04/01 20:00 -->
      <g transform="translate(620.354362 696.176048)rotate(-45)scale(0.1 -0.1)">
       <use xlink:href="#DejaVuSans-48"/>
       <use x="63.623047" xlink:href="#DejaVuSans-52"/>
       <use x="127.246094" xlink:href="#DejaVuSans-47"/>
       <use x="160.9375" xlink:href="#DejaVuSans-48"/>
       <use x="224.560547" xlink:href="#DejaVuSans-49"/>
       <use x="288.183594" xlink:href="#DejaVuSans-32"/>
       <use x="319.970703" xlink:href="#DejaVuSans-50"/>
       <use x="383.59375" xlink:href="#DejaVuSans-48"/>
       <use x="447.216797" xlink:href="#DejaVuSans-58"/>
       <use x="480.908203" xlink:href="#DejaVuSans-48"/>
       <use x="544.53125" xlink:href="#DejaVuSans-48"/>
      </g>
     </g>
    </g>
    <g id="xtick_20">
     <g id="line2d_39">
      <path clip-path="url(#pe60673161e)" d="M 668.617854 640.8 
L 668.617854 86.4 
" style="fill:none;stroke:#b0b0b0;stroke-linecap:square;stroke-width:0.8;"/>
     </g>
     <g id="line2d_40">
      <g>
       <use style="stroke:#000000;stroke-width:0.8;" x="668.617854" xlink:href="#m175fab4902" y="640.8"/>
      </g>
     </g>
     <g id="text_20">
      <!-- 04/01 23:00 -->
      <g transform="translate(649.067457 696.176048)rotate(-45)scale(0.1 -0.1)">
       <use xlink:href="#DejaVuSans-48"/>
       <use x="63.623047" xlink:href="#DejaVuSans-52"/>
       <use x="127.246094" xlink:href="#DejaVuSans-47"/>
       <use x="160.9375" xlink:href="#DejaVuSans-48"/>
       <use x="224.560547" xlink:href="#DejaVuSans-49"/>
       <use x="288.183594" xlink:href="#DejaVuSans-32"/>
       <use x="319.970703" xlink:href="#DejaVuSans-50"/>
       <use x="383.59375" xlink:href="#DejaVuSans-51"/>
       <use x="447.216797" xlink:href="#DejaVuSans-58"/>
       <use x="480.908203" xlink:href="#DejaVuSans-48"/>
       <use x="544.53125" xlink:href="#DejaVuSans-48"/>
      </g>
     </g>
    </g>
    <g id="xtick_21">
     <g id="line2d_41">
      <path clip-path="url(#pe60673161e)" d="M 697.330949 640.8 
L 697.330949 86.4 
" style="fill:none;stroke:#b0b0b0;stroke-linecap:square;stroke-width:0.8;"/>
     </g>
     <g id="line2d_42">
      <g>
       <use style="stroke:#000000;stroke-width:0.8;" x="697.330949" xlink:href="#m175fab4902" y="640.8"/>
      </g>
     </g>
     <g id="text_21">
      <!-- 04/02 02:00 -->
      <g transform="translate(677.780551 696.176048)rotate(-45)scale(0.1 -0.1)">
       <use xlink:href="#DejaVuSans-48"/>
       <use x="63.623047" xlink:href="#DejaVuSans-52"/>
       <use x="127.246094" xlink:href="#DejaVuSans-47"/>
       <use x="160.9375" xlink:href="#DejaVuSans-48"/>
       <use x="224.560547" xlink:href="#DejaVuSans-50"/>
       <use x="288.183594" xlink:href="#DejaVuSans-32"/>
       <use x="319.970703" xlink:href="#DejaVuSans-48"/>
       <use x="383.59375" xlink:href="#DejaVuSans-50"/>
       <use x="447.216797" xlink:href="#DejaVuSans-58"/>
       <use x="480.908203" xlink:href="#DejaVuSans-48"/>
       <use x="544.53125" xlink:href="#DejaVuSans-48"/>
      </g>
     </g>
    </g>
    <g id="xtick_22">
     <g id="line2d_43">
      <path clip-path="url(#pe60673161e)" d="M 726.044044 640.8 
L 726.044044 86.4 
" style="fill:none;stroke:#b0b0b0;stroke-linecap:square;stroke-width:0.8;"/>
     </g>
     <g id="line2d_44">
      <g>
       <use style="stroke:#000000;stroke-width:0.8;" x="726.044044" xlink:href="#m175fab4902" y="640.8"/>
      </g>
     </g>
     <g id="text_22">
      <!-- 04/02 05:00 -->
      <g transform="translate(706.493646 696.176048)rotate(-45)scale(0.1 -0.1)">
       <use xlink:href="#DejaVuSans-48"/>
       <use x="63.623047" xlink:href="#DejaVuSans-52"/>
       <use x="127.246094" xlink:href="#DejaVuSans-47"/>
       <use x="160.9375" xlink:href="#DejaVuSans-48"/>
       <use x="224.560547" xlink:href="#DejaVuSans-50"/>
       <use x="288.183594" xlink:href="#DejaVuSans-32"/>
       <use x="319.970703" xlink:href="#DejaVuSans-48"/>
       <use x="383.59375" xlink:href="#DejaVuSans-53"/>
       <use x="447.216797" xlink:href="#DejaVuSans-58"/>
       <use x="480.908203" xlink:href="#DejaVuSans-48"/>
       <use x="544.53125" xlink:href="#DejaVuSans-48"/>
      </g>
     </g>
    </g>
    <g id="xtick_23">
     <g id="line2d_45">
      <path clip-path="url(#pe60673161e)" d="M 754.757138 640.8 
L 754.757138 86.4 
" style="fill:none;stroke:#b0b0b0;stroke-linecap:square;stroke-width:0.8;"/>
     </g>
     <g id="line2d_46">
      <g>
       <use style="stroke:#000000;stroke-width:0.8;" x="754.757138" xlink:href="#m175fab4902" y="640.8"/>
      </g>
     </g>
     <g id="text_23">
      <!-- 04/02 08:00 -->
      <g transform="translate(735.20674 696.176048)rotate(-45)scale(0.1 -0.1)">
       <use xlink:href="#DejaVuSans-48"/>
       <use x="63.623047" xlink:href="#DejaVuSans-52"/>
       <use x="127.246094" xlink:href="#DejaVuSans-47"/>
       <use x="160.9375" xlink:href="#DejaVuSans-48"/>
       <use x="224.560547" xlink:href="#DejaVuSans-50"/>
       <use x="288.183594" xlink:href="#DejaVuSans-32"/>
       <use x="319.970703" xlink:href="#DejaVuSans-48"/>
       <use x="383.59375" xlink:href="#DejaVuSans-56"/>
       <use x="447.216797" xlink:href="#DejaVuSans-58"/>
       <use x="480.908203" xlink:href="#DejaVuSans-48"/>
       <use x="544.53125" xlink:href="#DejaVuSans-48"/>
      </g>
     </g>
    </g>
    <g id="text_24">
     <!-- Date -->
     <defs>
      <path d="M 19.671875 64.796875 
L 19.671875 8.109375 
L 31.59375 8.109375 
Q 46.6875 8.109375 53.6875 14.9375 
Q 60.6875 21.78125 60.6875 36.53125 
Q 60.6875 51.171875 53.6875 57.984375 
Q 46.6875 64.796875 31.59375 64.796875 
z
M 9.8125 72.90625 
L 30.078125 72.90625 
Q 51.265625 72.90625 61.171875 64.09375 
Q 71.09375 55.28125 71.09375 36.53125 
Q 71.09375 17.671875 61.125 8.828125 
Q 51.171875 0 30.078125 0 
L 9.8125 0 
z
" id="DejaVuSans-68"/>
      <path d="M 34.28125 27.484375 
Q 23.390625 27.484375 19.1875 25 
Q 14.984375 22.515625 14.984375 16.5 
Q 14.984375 11.71875 18.140625 8.90625 
Q 21.296875 6.109375 26.703125 6.109375 
Q 34.1875 6.109375 38.703125 11.40625 
Q 43.21875 16.703125 43.21875 25.484375 
L 43.21875 27.484375 
z
M 52.203125 31.203125 
L 52.203125 0 
L 43.21875 0 
L 43.21875 8.296875 
Q 40.140625 3.328125 35.546875 0.953125 
Q 30.953125 -1.421875 24.3125 -1.421875 
Q 15.921875 -1.421875 10.953125 3.296875 
Q 6 8.015625 6 15.921875 
Q 6 25.140625 12.171875 29.828125 
Q 18.359375 34.515625 30.609375 34.515625 
L 43.21875 34.515625 
L 43.21875 35.40625 
Q 43.21875 41.609375 39.140625 45 
Q 35.0625 48.390625 27.6875 48.390625 
Q 23 48.390625 18.546875 47.265625 
Q 14.109375 46.140625 10.015625 43.890625 
L 10.015625 52.203125 
Q 14.9375 54.109375 19.578125 55.046875 
Q 24.21875 56 28.609375 56 
Q 40.484375 56 46.34375 49.84375 
Q 52.203125 43.703125 52.203125 31.203125 
z
" id="DejaVuSans-97"/>
      <path d="M 18.3125 70.21875 
L 18.3125 54.6875 
L 36.8125 54.6875 
L 36.8125 47.703125 
L 18.3125 47.703125 
L 18.3125 18.015625 
Q 18.3125 11.328125 20.140625 9.421875 
Q 21.96875 7.515625 27.59375 7.515625 
L 36.8125 7.515625 
L 36.8125 0 
L 27.59375 0 
Q 17.1875 0 13.234375 3.875 
Q 9.28125 7.765625 9.28125 18.015625 
L 9.28125 47.703125 
L 2.6875 47.703125 
L 2.6875 54.6875 
L 9.28125 54.6875 
L 9.28125 70.21875 
z
" id="DejaVuSans-116"/>
      <path d="M 56.203125 29.59375 
L 56.203125 25.203125 
L 14.890625 25.203125 
Q 15.484375 15.921875 20.484375 11.0625 
Q 25.484375 6.203125 34.421875 6.203125 
Q 39.59375 6.203125 44.453125 7.46875 
Q 49.3125 8.734375 54.109375 11.28125 
L 54.109375 2.78125 
Q 49.265625 0.734375 44.1875 -0.34375 
Q 39.109375 -1.421875 33.890625 -1.421875 
Q 20.796875 -1.421875 13.15625 6.1875 
Q 5.515625 13.8125 5.515625 26.8125 
Q 5.515625 40.234375 12.765625 48.109375 
Q 20.015625 56 32.328125 56 
Q 43.359375 56 49.78125 48.890625 
Q 56.203125 41.796875 56.203125 29.59375 
z
M 47.21875 32.234375 
Q 47.125 39.59375 43.09375 43.984375 
Q 39.0625 48.390625 32.421875 48.390625 
Q 24.90625 48.390625 20.390625 44.140625 
Q 15.875 39.890625 15.1875 32.171875 
z
" id="DejaVuSans-101"/>
     </defs>
     <g transform="translate(430.849219 709.245046)scale(0.1 -0.1)">
      <use xlink:href="#DejaVuSans-68"/>
      <use x="77.001953" xlink:href="#DejaVuSans-97"/>
      <use x="138.28125" xlink:href="#DejaVuSans-116"/>
      <use x="177.490234" xlink:href="#DejaVuSans-101"/>
     </g>
    </g>
   </g>
   <g id="matplotlib.axis_2">
    <g id="ytick_1">
     <g id="line2d_47">
      <path clip-path="url(#pe60673161e)" d="M 108 640.8 
L 777.6 640.8 
" style="fill:none;stroke:#b0b0b0;stroke-linecap:square;stroke-width:0.8;"/>
     </g>
     <g id="line2d_48">
      <defs>
       <path d="M 0 0 
L -3.5 0 
" id="m7a85f20953" style="stroke:#000000;stroke-width:0.8;"/>
      </defs>
      <g>
       <use style="stroke:#000000;stroke-width:0.8;" x="108" xlink:href="#m7a85f20953" y="640.8"/>
      </g>
     </g>
     <g id="text_25">
      <!-- 0.0 -->
      <defs>
       <path d="M 10.6875 12.40625 
L 21 12.40625 
L 21 0 
L 10.6875 0 
z
" id="DejaVuSans-46"/>
      </defs>
      <g transform="translate(85.096875 644.599219)scale(0.1 -0.1)">
       <use xlink:href="#DejaVuSans-48"/>
       <use x="63.623047" xlink:href="#DejaVuSans-46"/>
       <use x="95.410156" xlink:href="#DejaVuSans-48"/>
      </g>
     </g>
    </g>
    <g id="ytick_2">
     <g id="line2d_49">
      <path clip-path="url(#pe60673161e)" d="M 108 529.92 
L 777.6 529.92 
" style="fill:none;stroke:#b0b0b0;stroke-linecap:square;stroke-width:0.8;"/>
     </g>
     <g id="line2d_50">
      <g>
       <use style="stroke:#000000;stroke-width:0.8;" x="108" xlink:href="#m7a85f20953" y="529.92"/>
      </g>
     </g>
     <g id="text_26">
      <!-- 0.2 -->
      <g transform="translate(85.096875 533.719219)scale(0.1 -0.1)">
       <use xlink:href="#DejaVuSans-48"/>
       <use x="63.623047" xlink:href="#DejaVuSans-46"/>
       <use x="95.410156" xlink:href="#DejaVuSans-50"/>
      </g>
     </g>
    </g>
    <g id="ytick_3">
     <g id="line2d_51">
      <path clip-path="url(#pe60673161e)" d="M 108 419.04 
L 777.6 419.04 
" style="fill:none;stroke:#b0b0b0;stroke-linecap:square;stroke-width:0.8;"/>
     </g>
     <g id="line2d_52">
      <g>
       <use style="stroke:#000000;stroke-width:0.8;" x="108" xlink:href="#m7a85f20953" y="419.04"/>
      </g>
     </g>
     <g id="text_27">
      <!-- 0.4 -->
      <g transform="translate(85.096875 422.839219)scale(0.1 -0.1)">
       <use xlink:href="#DejaVuSans-48"/>
       <use x="63.623047" xlink:href="#DejaVuSans-46"/>
       <use x="95.410156" xlink:href="#DejaVuSans-52"/>
      </g>
     </g>
    </g>
    <g id="ytick_4">
     <g id="line2d_53">
      <path clip-path="url(#pe60673161e)" d="M 108 308.16 
L 777.6 308.16 
" style="fill:none;stroke:#b0b0b0;stroke-linecap:square;stroke-width:0.8;"/>
     </g>
     <g id="line2d_54">
      <g>
       <use style="stroke:#000000;stroke-width:0.8;" x="108" xlink:href="#m7a85f20953" y="308.16"/>
      </g>
     </g>
     <g id="text_28">
      <!-- 0.6 -->
      <defs>
       <path d="M 33.015625 40.375 
Q 26.375 40.375 22.484375 35.828125 
Q 18.609375 31.296875 18.609375 23.390625 
Q 18.609375 15.53125 22.484375 10.953125 
Q 26.375 6.390625 33.015625 6.390625 
Q 39.65625 6.390625 43.53125 10.953125 
Q 47.40625 15.53125 47.40625 23.390625 
Q 47.40625 31.296875 43.53125 35.828125 
Q 39.65625 40.375 33.015625 40.375 
z
M 52.59375 71.296875 
L 52.59375 62.3125 
Q 48.875 64.0625 45.09375 64.984375 
Q 41.3125 65.921875 37.59375 65.921875 
Q 27.828125 65.921875 22.671875 59.328125 
Q 17.53125 52.734375 16.796875 39.40625 
Q 19.671875 43.65625 24.015625 45.921875 
Q 28.375 48.1875 33.59375 48.1875 
Q 44.578125 48.1875 50.953125 41.515625 
Q 57.328125 34.859375 57.328125 23.390625 
Q 57.328125 12.15625 50.6875 5.359375 
Q 44.046875 -1.421875 33.015625 -1.421875 
Q 20.359375 -1.421875 13.671875 8.265625 
Q 6.984375 17.96875 6.984375 36.375 
Q 6.984375 53.65625 15.1875 63.9375 
Q 23.390625 74.21875 37.203125 74.21875 
Q 40.921875 74.21875 44.703125 73.484375 
Q 48.484375 72.75 52.59375 71.296875 
z
" id="DejaVuSans-54"/>
      </defs>
      <g transform="translate(85.096875 311.959219)scale(0.1 -0.1)">
       <use xlink:href="#DejaVuSans-48"/>
       <use x="63.623047" xlink:href="#DejaVuSans-46"/>
       <use x="95.410156" xlink:href="#DejaVuSans-54"/>
      </g>
     </g>
    </g>
    <g id="ytick_5">
     <g id="line2d_55">
      <path clip-path="url(#pe60673161e)" d="M 108 197.28 
L 777.6 197.28 
" style="fill:none;stroke:#b0b0b0;stroke-linecap:square;stroke-width:0.8;"/>
     </g>
     <g id="line2d_56">
      <g>
       <use style="stroke:#000000;stroke-width:0.8;" x="108" xlink:href="#m7a85f20953" y="197.28"/>
      </g>
     </g>
     <g id="text_29">
      <!-- 0.8 -->
      <g transform="translate(85.096875 201.079219)scale(0.1 -0.1)">
       <use xlink:href="#DejaVuSans-48"/>
       <use x="63.623047" xlink:href="#DejaVuSans-46"/>
       <use x="95.410156" xlink:href="#DejaVuSans-56"/>
      </g>
     </g>
    </g>
    <g id="ytick_6">
     <g id="line2d_57">
      <path clip-path="url(#pe60673161e)" d="M 108 86.4 
L 777.6 86.4 
" style="fill:none;stroke:#b0b0b0;stroke-linecap:square;stroke-width:0.8;"/>
     </g>
     <g id="line2d_58">
      <g>
       <use style="stroke:#000000;stroke-width:0.8;" x="108" xlink:href="#m7a85f20953" y="86.4"/>
      </g>
     </g>
     <g id="text_30">
      <!-- 1.0 -->
      <g transform="translate(85.096875 90.199219)scale(0.1 -0.1)">
       <use xlink:href="#DejaVuSans-49"/>
       <use x="63.623047" xlink:href="#DejaVuSans-46"/>
       <use x="95.410156" xlink:href="#DejaVuSans-48"/>
      </g>
     </g>
    </g>
    <g id="text_31">
     <!-- Ratio -->
     <defs>
      <path d="M 44.390625 34.1875 
Q 47.5625 33.109375 50.5625 29.59375 
Q 53.5625 26.078125 56.59375 19.921875 
L 66.609375 0 
L 56 0 
L 46.6875 18.703125 
Q 43.0625 26.03125 39.671875 28.421875 
Q 36.28125 30.8125 30.421875 30.8125 
L 19.671875 30.8125 
L 19.671875 0 
L 9.8125 0 
L 9.8125 72.90625 
L 32.078125 72.90625 
Q 44.578125 72.90625 50.734375 67.671875 
Q 56.890625 62.453125 56.890625 51.90625 
Q 56.890625 45.015625 53.6875 40.46875 
Q 50.484375 35.9375 44.390625 34.1875 
z
M 19.671875 64.796875 
L 19.671875 38.921875 
L 32.078125 38.921875 
Q 39.203125 38.921875 42.84375 42.21875 
Q 46.484375 45.515625 46.484375 51.90625 
Q 46.484375 58.296875 42.84375 61.546875 
Q 39.203125 64.796875 32.078125 64.796875 
z
" id="DejaVuSans-82"/>
      <path d="M 9.421875 54.6875 
L 18.40625 54.6875 
L 18.40625 0 
L 9.421875 0 
z
M 9.421875 75.984375 
L 18.40625 75.984375 
L 18.40625 64.59375 
L 9.421875 64.59375 
z
" id="DejaVuSans-105"/>
      <path d="M 30.609375 48.390625 
Q 23.390625 48.390625 19.1875 42.75 
Q 14.984375 37.109375 14.984375 27.296875 
Q 14.984375 17.484375 19.15625 11.84375 
Q 23.34375 6.203125 30.609375 6.203125 
Q 37.796875 6.203125 41.984375 11.859375 
Q 46.1875 17.53125 46.1875 27.296875 
Q 46.1875 37.015625 41.984375 42.703125 
Q 37.796875 48.390625 30.609375 48.390625 
z
M 30.609375 56 
Q 42.328125 56 49.015625 48.375 
Q 55.71875 40.765625 55.71875 27.296875 
Q 55.71875 13.875 49.015625 6.21875 
Q 42.328125 -1.421875 30.609375 -1.421875 
Q 18.84375 -1.421875 12.171875 6.21875 
Q 5.515625 13.875 5.515625 27.296875 
Q 5.515625 40.765625 12.171875 48.375 
Q 18.84375 56 30.609375 56 
z
" id="DejaVuSans-111"/>
     </defs>
     <g transform="translate(79.017187 376.545312)rotate(-90)scale(0.1 -0.1)">
      <use xlink:href="#DejaVuSans-82"/>
      <use x="69.451172" xlink:href="#DejaVuSans-97"/>
      <use x="130.730469" xlink:href="#DejaVuSans-116"/>
      <use x="169.939453" xlink:href="#DejaVuSans-105"/>
      <use x="197.722656" xlink:href="#DejaVuSans-111"/>
     </g>
    </g>
   </g>
   <g id="line2d_59">
    <path clip-path="url(#pe60673161e)" d="M 108 638.5824 
L 110.733061 639.183 
L 113.466122 638.5824 
L 116.199184 639.2754 
L 118.932245 638.9982 
L 121.665306 638.5824 
L 124.398367 638.8134 
L 129.86449 638.721 
L 132.597551 638.9982 
L 135.330612 638.8596 
L 138.063673 638.952 
L 140.796735 638.6748 
L 143.529796 638.7672 
L 146.262857 638.6286 
L 151.72898 639.183 
L 154.462041 638.8596 
L 157.195102 639.5988 
L 159.928163 638.9058 
L 165.394286 638.628238 
L 168.127347 639.0906 
L 170.860408 638.6748 
L 173.593469 638.952 
L 176.326531 575.1498 
L 179.059592 638.905863 
L 181.792653 638.7672 
L 189.991837 638.9058 
L 192.724898 638.8134 
L 195.457959 638.952 
L 198.19102 638.9058 
L 200.924082 639.0444 
L 203.657143 639.0444 
L 206.390204 638.8134 
L 209.123265 637.5198 
L 211.856327 638.7672 
L 214.589388 637.6584 
L 217.322449 638.721 
L 220.05551 638.3514 
L 222.788571 632.8998 
L 225.521633 638.628455 
L 228.254694 638.9058 
L 230.987755 638.8134 
L 233.720816 638.952 
L 236.453878 639.2292 
L 239.186939 638.952 
L 241.92 639.2754 
L 244.653061 639.4602 
L 247.386122 637.6122 
L 250.119184 638.8134 
L 252.852245 638.1204 
L 255.585306 638.7672 
L 261.051429 639.1368 
L 263.78449 638.8596 
L 269.250612 638.7672 
L 271.983673 634.794 
L 274.716735 638.952 
L 277.449796 639.0444 
L 280.182857 639.3216 
L 282.915918 639.3678 
L 285.64898 637.9818 
L 288.382041 637.797 
L 291.115102 638.7672 
L 293.848163 638.721 
L 296.581224 639.2754 
L 299.314286 638.8596 
L 304.780408 638.8596 
L 307.513469 637.4274 
L 310.246531 638.7672 
L 312.979592 639.1368 
L 315.712653 639.1368 
L 321.178775 639.3216 
L 323.911837 638.952 
L 326.644898 638.721 
L 329.377959 637.4274 
L 332.11102 638.721 
L 334.844082 638.7672 
L 337.577143 638.952 
L 340.310204 636.3648 
L 343.043265 639.0906 
L 345.776327 638.49 
L 348.509388 638.8596 
L 351.242449 638.8596 
L 353.97551 638.721 
L 356.708571 638.9058 
L 359.441633 638.721 
L 362.174694 638.721 
L 364.907755 639.2754 
L 370.373878 638.8134 
L 373.106939 638.8596 
L 375.84 638.721 
L 378.573061 638.9058 
L 381.306122 639.2754 
L 384.039184 639.3216 
L 386.772245 638.9058 
L 389.505306 637.704497 
L 392.238367 637.566 
L 394.971429 638.9982 
L 397.70449 639.2292 
L 400.437551 638.8596 
L 403.170612 638.259 
L 405.903673 638.9058 
L 408.636735 638.9058 
L 414.102857 638.5362 
L 416.835918 639.2292 
L 419.56898 639.1368 
L 422.302041 638.8596 
L 425.035102 639.1368 
L 433.234286 638.8596 
L 435.967347 639.137299 
L 438.700408 639.0444 
L 441.433469 638.721 
L 444.166531 638.721 
L 446.899592 638.8596 
L 449.632653 637.335 
L 452.365714 639.2292 
L 455.098776 639.275349 
L 457.831837 639.0906 
L 460.564898 632.6226 
L 463.297959 639.1368 
L 466.03102 638.6748 
L 468.764082 637.1964 
L 471.497143 638.8134 
L 474.230204 639.183 
L 476.963265 638.9058 
L 487.89551 638.8596 
L 490.628571 637.797 
L 493.361633 639.414 
L 496.094694 639.183 
L 498.827755 638.721 
L 504.293878 638.9058 
L 507.026939 638.8596 
L 509.76 637.1502 
L 512.493061 638.8134 
L 515.226122 639.3678 
L 517.959184 638.7672 
L 520.692245 638.8134 
L 523.425306 639.0444 
L 526.158367 639.0444 
L 531.62449 638.7672 
L 534.357551 639.414 
L 537.090612 639.183 
L 539.823673 639.183 
L 542.556735 638.9982 
L 545.289796 638.259 
L 548.022857 638.9058 
L 550.755918 638.5824 
L 556.222041 638.9982 
L 558.955102 637.4736 
L 561.688163 639.1368 
L 564.421224 639.0906 
L 567.154286 638.9058 
L 569.887347 638.8596 
L 572.620408 639.0444 
L 575.353469 638.7672 
L 578.086531 636.18 
L 580.819592 639.183 
L 583.552653 638.9058 
L 586.285714 638.8596 
L 589.018775 639.1368 
L 591.751837 638.6748 
L 594.484898 637.7508 
L 597.217959 638.0742 
L 599.95102 638.8134 
L 602.684082 639.0906 
L 608.150204 639.183 
L 610.883265 639.0444 
L 613.616326 638.7672 
L 624.548571 638.8596 
L 630.014694 638.9982 
L 635.480816 638.721 
L 638.213878 638.8134 
L 640.946939 638.6286 
L 643.68 638.952 
L 646.413061 638.8134 
L 649.146122 639.2292 
L 651.879184 638.952 
L 654.612245 639.1368 
L 657.345306 638.8596 
L 660.078367 639.0906 
L 662.811429 638.7672 
L 668.277551 638.9058 
L 671.010612 637.2426 
L 673.743673 639.0906 
L 676.476735 638.7672 
L 679.209796 638.1666 
L 681.942857 638.628528 
L 684.675918 638.8134 
L 687.40898 638.8134 
L 692.875102 638.9982 
L 695.608163 635.487 
L 698.341224 634.5168 
L 701.074286 638.6748 
L 703.807347 638.6748 
L 706.540408 638.8596 
L 709.273469 639.3216 
L 712.006531 638.8596 
L 720.205714 638.7672 
L 722.938775 638.721 
L 728.404898 639.0444 
L 731.137959 638.721 
L 733.87102 638.952 
L 736.604082 638.7672 
L 739.337143 638.952 
L 742.070204 638.7672 
L 747.536326 638.9058 
L 750.269388 638.8596 
L 753.002449 639.2292 
L 755.73551 638.7672 
L 758.468571 638.8596 
L 763.934694 638.721 
L 774.866939 639.183 
L 777.6 639.414 
L 777.6 639.414 
" style="fill:none;stroke:#1f77b4;stroke-linecap:square;stroke-width:1.5;"/>
   </g>
   <g id="line2d_60">
    <path clip-path="url(#pe60673161e)" d="M 108 640.8 
L 777.6 640.8 
L 777.6 640.8 
" style="fill:none;stroke:#ff7f0e;stroke-linecap:square;stroke-width:1.5;"/>
   </g>
   <g id="line2d_61">
    <path clip-path="url(#pe60673161e)" d="M 108 640.8 
L 777.6 640.8 
L 777.6 640.8 
" style="fill:none;stroke:#2ca02c;stroke-linecap:square;stroke-width:1.5;"/>
   </g>
   <g id="line2d_62">
    <path clip-path="url(#pe60673161e)" d="M 108 635.025 
L 110.733061 634.563 
L 113.466122 634.8864 
L 118.932245 634.9326 
L 121.665306 634.7478 
L 124.398367 635.1636 
L 127.131429 634.1472 
L 129.86449 633.5004 
L 135.330612 634.1934 
L 138.063673 634.9788 
L 140.796735 635.3484 
L 143.529796 634.9326 
L 146.262857 634.9326 
L 148.995918 634.5168 
L 151.72898 635.8104 
L 154.462041 635.025 
L 157.195102 635.3946 
L 159.928163 634.6554 
L 162.661224 634.5168 
L 165.394286 630.726721 
L 168.127347 635.5332 
L 170.860408 634.0548 
L 173.593469 634.1934 
L 176.326531 617.7924 
L 179.059592 634.101223 
L 181.792653 633.7314 
L 184.525714 633.7776 
L 187.258776 634.7016 
L 189.991837 635.1636 
L 192.724898 634.3782 
L 195.457959 634.332 
L 198.19102 634.7016 
L 200.924082 634.4244 
L 203.657143 633.3618 
L 206.390204 633.6852 
L 209.123265 634.563 
L 211.856327 634.1934 
L 214.589388 634.6092 
L 217.322449 635.1636 
L 220.05551 634.8402 
L 222.788571 620.3796 
L 225.521633 635.440443 
L 228.254694 634.6554 
L 230.987755 635.2098 
L 233.720816 634.2396 
L 236.453878 635.5794 
L 239.186939 633.7776 
L 241.92 634.7478 
L 244.653061 635.3484 
L 247.386122 634.4244 
L 250.119184 634.5168 
L 252.852245 634.2396 
L 255.585306 633.639 
L 258.318367 634.8864 
L 261.051429 634.7016 
L 266.517551 635.0712 
L 269.250612 634.9788 
L 271.983673 626.2008 
L 274.716735 635.487 
L 277.449796 634.6554 
L 280.182857 635.6256 
L 282.915918 635.487 
L 285.64898 634.9326 
L 288.382041 634.6092 
L 291.115102 634.6554 
L 293.848163 635.1174 
L 296.581224 634.2858 
L 299.314286 634.4706 
L 302.047347 634.9326 
L 304.780408 634.4706 
L 307.513469 634.4706 
L 310.246531 634.0086 
L 312.979592 634.1934 
L 315.712653 635.2098 
L 318.445714 635.256 
L 321.178775 634.7016 
L 323.911837 634.6092 
L 329.377959 632.6688 
L 332.11102 634.8402 
L 334.844082 634.9326 
L 337.577143 636.0876 
L 340.310204 620.1948 
L 343.043265 625.092 
L 345.776327 634.3782 
L 356.708571 634.6554 
L 359.441633 635.256 
L 362.174694 634.4244 
L 364.907755 635.025 
L 370.373878 635.1636 
L 373.106939 634.563 
L 375.84 634.2396 
L 378.573061 624.9072 
L 381.306122 635.718 
L 384.039184 634.794 
L 386.772245 634.5168 
L 389.505306 635.302017 
L 392.238367 634.794 
L 394.971429 634.9788 
L 397.70449 634.5168 
L 400.437551 634.1934 
L 403.170612 634.101 
L 405.903673 634.5168 
L 408.636735 634.2396 
L 411.369796 634.4706 
L 414.102857 635.3022 
L 416.835918 634.8864 
L 419.56898 635.6256 
L 427.768163 633.7314 
L 430.501224 635.5332 
L 433.234286 635.2098 
L 435.967347 635.026732 
L 438.700408 634.3782 
L 441.433469 634.7478 
L 446.899592 634.5168 
L 449.632653 635.3022 
L 452.365714 634.4244 
L 455.098776 634.978606 
L 457.831837 634.1472 
L 460.564898 621.1188 
L 463.297959 635.3946 
L 466.03102 634.4706 
L 468.764082 634.8864 
L 471.497143 635.1174 
L 474.230204 634.3782 
L 479.696327 634.7016 
L 482.429388 634.9788 
L 485.162449 634.8402 
L 487.89551 634.2858 
L 490.628571 635.3022 
L 493.361633 634.7016 
L 496.094694 634.4244 
L 498.827755 635.3022 
L 501.560816 634.7016 
L 504.293878 635.5794 
L 507.026939 635.9028 
L 509.76 635.3022 
L 515.226122 634.7478 
L 517.959184 635.1174 
L 520.692245 634.7016 
L 523.425306 633.9624 
L 526.158367 634.794 
L 528.891429 635.487 
L 531.62449 634.3782 
L 534.357551 634.9788 
L 537.090612 634.794 
L 539.823673 635.3484 
L 542.556735 635.3946 
L 545.289796 634.794 
L 550.755918 634.5168 
L 553.48898 634.332 
L 556.222041 634.8402 
L 558.955102 634.2858 
L 561.688163 635.256 
L 564.421224 634.6092 
L 567.154286 634.2858 
L 569.887347 634.1934 
L 572.620408 634.4244 
L 575.353469 635.025 
L 578.086531 623.475 
L 580.819592 634.7478 
L 583.552653 634.4244 
L 586.285714 635.256 
L 589.018775 634.101 
L 591.751837 634.3782 
L 594.484898 633.408 
L 597.217959 634.9788 
L 599.95102 633.7314 
L 602.684082 635.0712 
L 605.417143 634.794 
L 608.150204 633.3618 
L 610.883265 634.6092 
L 613.616326 634.8864 
L 616.349388 633.9162 
L 619.082449 634.1472 
L 621.81551 635.1636 
L 624.548571 634.6092 
L 627.281633 634.794 
L 630.014694 634.7016 
L 632.747755 634.8864 
L 635.480816 633.9624 
L 638.213878 634.4244 
L 640.946939 633.639 
L 643.68 635.7642 
L 646.413061 634.6554 
L 649.146122 634.332 
L 651.879184 635.3022 
L 654.612245 634.7478 
L 657.345306 634.9326 
L 660.078367 634.1472 
L 662.811429 634.563 
L 665.54449 634.7478 
L 668.277551 634.4244 
L 671.010612 635.1174 
L 673.743673 634.8402 
L 676.476735 634.9326 
L 679.209796 630.8208 
L 681.942857 634.701397 
L 684.675918 634.1934 
L 687.40898 634.794 
L 690.142041 634.3782 
L 692.875102 634.6554 
L 695.608163 620.8878 
L 698.341224 621.4884 
L 701.074286 633.7776 
L 703.807347 635.0712 
L 706.540408 634.8864 
L 709.273469 635.8566 
L 712.006531 635.5794 
L 714.739592 635.1174 
L 717.472653 635.2098 
L 720.205714 634.332 
L 722.938775 634.3782 
L 725.671837 634.2858 
L 728.404898 634.3782 
L 731.137959 633.2694 
L 733.87102 635.1636 
L 736.604082 635.4408 
L 739.337143 635.4408 
L 742.070204 634.4244 
L 744.803265 635.3484 
L 747.536326 636.0414 
L 750.269388 634.2396 
L 753.002449 635.025 
L 755.73551 633.7776 
L 758.468571 634.8864 
L 761.201633 634.1472 
L 763.934694 634.101 
L 766.667755 635.6718 
L 769.400816 635.1174 
L 772.133878 635.6256 
L 774.866939 634.3782 
L 777.6 635.1174 
L 777.6 635.1174 
" style="fill:none;stroke:#d62728;stroke-linecap:square;stroke-width:1.5;"/>
   </g>
   <g id="line2d_63">
    <path clip-path="url(#pe60673161e)" d="M 108 640.8 
L 777.6 640.8 
L 777.6 640.8 
" style="fill:none;stroke:#9467bd;stroke-linecap:square;stroke-width:1.5;"/>
   </g>
   <g id="line2d_64">
    <path clip-path="url(#pe60673161e)" d="M 108 609.0144 
L 110.733061 609.1992 
L 113.466122 608.4138 
L 116.199184 606.1962 
L 118.932245 610.9548 
L 121.665306 608.5524 
L 124.398367 609.615 
L 127.131429 610.4004 
L 129.86449 606.7044 
L 132.597551 606.381 
L 135.330612 609.0606 
L 138.063673 610.9086 
L 140.796735 609.153 
L 143.529796 608.6448 
L 146.262857 608.922 
L 148.995918 610.2156 
L 151.72898 608.5986 
L 154.462041 608.922 
L 157.195102 611.463 
L 159.928163 599.0814 
L 162.661224 612.1098 
L 165.394286 602.4014 
L 168.127347 609.8922 
L 170.860408 610.2618 
L 173.593469 608.922 
L 176.326531 597.141 
L 179.059592 608.923063 
L 181.792653 609.7998 
L 184.525714 609.9846 
L 187.258776 606.4734 
L 189.991837 607.5822 
L 192.724898 605.0412 
L 195.457959 610.7238 
L 198.19102 610.8624 
L 200.924082 609.384 
L 203.657143 608.7372 
L 206.390204 609.5688 
L 209.123265 609.153 
L 211.856327 605.3184 
L 214.589388 610.1232 
L 217.322449 610.2156 
L 220.05551 607.8132 
L 222.788571 589.518 
L 225.521633 608.55025 
L 228.254694 605.9652 
L 230.987755 607.305 
L 233.720816 608.229 
L 236.453878 604.8564 
L 239.186939 609.1068 
L 241.92 606.612 
L 244.653061 608.7834 
L 247.386122 609.8922 
L 250.119184 608.1828 
L 252.852245 610.4466 
L 255.585306 607.8594 
L 258.318367 608.4138 
L 261.051429 609.384 
L 263.78449 612.2484 
L 266.517551 611.1396 
L 269.250612 609.5688 
L 271.983673 591.3198 
L 274.716735 610.2156 
L 277.449796 608.9682 
L 280.182857 605.5032 
L 282.915918 610.077 
L 285.64898 611.1858 
L 288.382041 607.7208 
L 291.115102 608.2752 
L 293.848163 609.7536 
L 296.581224 609.9846 
L 299.314286 609.1992 
L 302.047347 610.77 
L 304.780408 608.7372 
L 307.513469 612.5718 
L 310.246531 607.8132 
L 312.979592 601.9458 
L 315.712653 607.074 
L 318.445714 609.9846 
L 321.178775 609.0144 
L 323.911837 608.46 
L 326.644898 608.46 
L 329.377959 604.9488 
L 332.11102 610.6776 
L 334.844082 608.5524 
L 337.577143 612.9414 
L 340.310204 593.9994 
L 343.043265 601.7148 
L 345.776327 608.46 
L 348.509388 604.2096 
L 351.242449 609.2454 
L 353.97551 610.1694 
L 356.708571 608.1366 
L 359.441633 608.46 
L 362.174694 611.5092 
L 364.907755 611.001 
L 367.640816 606.1962 
L 370.373878 610.1232 
L 373.106939 607.536 
L 375.84 609.6612 
L 378.573061 591.135 
L 381.306122 609.1992 
L 384.039184 613.1262 
L 386.772245 609.5226 
L 389.505306 606.518457 
L 392.238367 610.4004 
L 394.971429 604.9488 
L 397.70449 607.7208 
L 400.437551 612.5718 
L 403.170612 610.8162 
L 405.903673 607.9518 
L 408.636735 608.3676 
L 411.369796 609.615 
L 414.102857 602.685 
L 416.835918 606.1038 
L 419.56898 609.846 
L 422.302041 610.77 
L 425.035102 606.15 
L 427.768163 607.3512 
L 430.501224 609.5688 
L 433.234286 607.6284 
L 435.967347 609.485794 
L 438.700408 611.7864 
L 441.433469 611.6478 
L 444.166531 610.3542 
L 446.899592 610.9086 
L 449.632653 607.1664 
L 452.365714 605.919 
L 455.098776 608.181713 
L 457.831837 606.7968 
L 460.564898 591.4584 
L 463.297959 608.691 
L 466.03102 611.8326 
L 468.764082 609.1068 
L 471.497143 609.1992 
L 474.230204 608.7834 
L 476.963265 608.5524 
L 479.696327 602.1768 
L 482.429388 611.694 
L 485.162449 609.9384 
L 487.89551 609.1992 
L 490.628571 609.9846 
L 493.361633 608.8758 
L 496.094694 608.3676 
L 498.827755 608.5524 
L 501.560816 609.0606 
L 504.293878 612.4794 
L 509.76 609.3378 
L 512.493061 609.6612 
L 515.226122 607.6746 
L 517.959184 604.8564 
L 520.692245 608.7834 
L 523.425306 606.4272 
L 526.158367 609.9384 
L 528.891429 608.0442 
L 531.62449 610.7238 
L 534.357551 612.156 
L 537.090612 605.0874 
L 539.823673 608.5524 
L 542.556735 607.8594 
L 545.289796 606.2886 
L 548.022857 606.3348 
L 550.755918 609.2454 
L 553.48898 606.0114 
L 556.222041 610.1232 
L 558.955102 611.232 
L 561.688163 611.6478 
L 564.421224 609.153 
L 567.154286 609.0144 
L 569.887347 606.5196 
L 572.620408 610.8624 
L 575.353469 610.4466 
L 578.086531 595.293 
L 580.819592 610.0308 
L 583.552653 611.1858 
L 586.285714 608.8296 
L 589.018775 607.6746 
L 591.751837 604.0248 
L 594.484898 609.153 
L 597.217959 610.4466 
L 599.95102 608.6448 
L 602.684082 609.5226 
L 605.417143 609.9846 
L 608.150204 609.1992 
L 610.883265 608.1366 
L 613.616326 607.8594 
L 616.349388 608.9682 
L 619.082449 608.6448 
L 621.81551 606.1038 
L 624.548571 606.9816 
L 627.281633 607.4898 
L 632.747755 608.8758 
L 635.480816 610.077 
L 638.213878 606.2886 
L 640.946939 608.7372 
L 643.68 608.5524 
L 646.413061 609.384 
L 649.146122 601.3914 
L 651.879184 607.536 
L 654.612245 605.3646 
L 657.345306 609.8922 
L 660.078367 609.4302 
L 662.811429 610.9548 
L 665.54449 607.9518 
L 671.010612 609.9846 
L 673.743673 610.4466 
L 676.476735 609.615 
L 679.209796 600.4212 
L 681.942857 610.260782 
L 684.675918 607.3974 
L 687.40898 605.1798 
L 690.142041 607.2588 
L 692.875102 607.4436 
L 695.608163 590.3496 
L 698.341224 589.5642 
L 701.074286 608.8758 
L 703.807347 610.9086 
L 706.540408 609.3378 
L 709.273469 609.9846 
L 712.006531 605.226 
L 714.739592 611.5092 
L 717.472653 605.5494 
L 720.205714 605.688 
L 722.938775 607.998 
L 725.671837 608.46 
L 728.404898 607.7208 
L 731.137959 608.8758 
L 733.87102 610.4466 
L 736.604082 607.5822 
L 739.337143 608.5986 
L 742.070204 602.3154 
L 744.803265 601.992 
L 747.536326 610.9548 
L 750.269388 610.1232 
L 753.002449 606.1962 
L 755.73551 604.4406 
L 758.468571 608.7834 
L 761.201633 608.0442 
L 763.934694 605.5494 
L 766.667755 610.4004 
L 769.400816 609.846 
L 772.133878 612.5718 
L 774.866939 610.3542 
L 777.6 609.0144 
L 777.6 609.0144 
" style="fill:none;stroke:#8c564b;stroke-linecap:square;stroke-width:1.5;"/>
   </g>
   <g id="line2d_65">
    <path clip-path="url(#pe60673161e)" d="M 108 547.2912 
L 110.733061 549.1392 
L 113.466122 554.0826 
L 116.199184 547.938 
L 118.932245 551.0796 
L 121.665306 546.783 
L 124.398367 548.1228 
L 127.131429 547.245 
L 129.86449 541.701 
L 132.597551 549.7398 
L 135.330612 542.0706 
L 138.063673 545.0274 
L 140.796735 543.8262 
L 143.529796 550.3866 
L 146.262857 553.2048 
L 148.995918 549.555 
L 151.72898 550.017 
L 154.462041 541.701 
L 157.195102 550.2942 
L 159.928163 540.7308 
L 162.661224 549.7398 
L 165.394286 533.736756 
L 168.127347 549.2778 
L 170.860408 552.8814 
L 173.593469 547.1526 
L 176.326531 546.5982 
L 179.059592 547.710103 
L 181.792653 547.4298 
L 184.525714 545.6742 
L 187.258776 550.017 
L 189.991837 551.8188 
L 192.724898 536.85 
L 195.457959 548.0304 
L 198.19102 549.324 
L 200.924082 537.4044 
L 203.657143 544.7964 
L 206.390204 550.6176 
L 209.123265 551.4492 
L 211.856327 545.8128 
L 214.589388 546.6444 
L 217.322449 544.7964 
L 220.05551 544.4268 
L 222.788571 520.5414 
L 225.521633 549.918541 
L 228.254694 548.9544 
L 233.720816 546.2748 
L 236.453878 537.081 
L 239.186939 540.546 
L 241.92 541.7934 
L 244.653061 545.3508 
L 247.386122 548.0304 
L 250.119184 549.0468 
L 252.852245 552.789 
L 255.585306 542.5788 
L 258.318367 543.9186 
L 261.051429 540.4536 
L 263.78449 549.6936 
L 266.517551 553.1586 
L 269.250612 544.242 
L 271.983673 496.7946 
L 274.716735 548.862 
L 277.449796 544.8888 
L 280.182857 543.9186 
L 282.915918 551.7726 
L 285.64898 549.0468 
L 288.382041 546.8754 
L 291.115102 545.8128 
L 293.848163 547.7994 
L 296.581224 544.5654 
L 299.314286 545.9052 
L 302.047347 548.9082 
L 304.780408 554.9604 
L 307.513469 550.9872 
L 310.246531 549.2778 
L 312.979592 544.704 
L 315.712653 542.2554 
L 318.445714 540.3612 
L 321.178775 546.6906 
L 323.911837 537.4506 
L 326.644898 556.3464 
L 329.377959 544.2882 
L 332.11102 546.783 
L 334.844082 546.6444 
L 337.577143 547.8456 
L 340.310204 525.9006 
L 343.043265 538.467 
L 345.776327 547.1526 
L 348.509388 541.7934 
L 351.242449 542.856 
L 353.97551 544.4268 
L 356.708571 549.786 
L 359.441633 553.1586 
L 362.174694 544.5654 
L 364.907755 553.8054 
L 367.640816 543.549 
L 370.373878 546.1824 
L 373.106939 545.3046 
L 375.84 544.8888 
L 378.573061 501.4608 
L 381.306122 548.2152 
L 384.039184 551.8188 
L 386.772245 549.324 
L 389.505306 544.007774 
L 392.238367 548.169 
L 394.971429 542.5788 
L 397.70449 551.3568 
L 400.437551 543.6876 
L 403.170612 553.7592 
L 405.903673 543.1794 
L 408.636735 549.1392 
L 411.369796 547.6608 
L 414.102857 545.5818 
L 416.835918 546.2286 
L 419.56898 543.549 
L 422.302041 551.2182 
L 425.035102 543.9648 
L 427.768163 542.6712 
L 430.501224 551.2644 
L 433.234286 543.549 
L 435.967347 547.503989 
L 438.700408 554.7756 
L 441.433469 556.0692 
L 444.166531 548.0766 
L 446.899592 542.0706 
L 449.632653 545.4894 
L 452.365714 546.8292 
L 455.098776 548.027308 
L 457.831837 543.1794 
L 460.564898 528.8574 
L 463.297959 546.4134 
L 466.03102 552.9276 
L 468.764082 550.2942 
L 471.497143 552.9276 
L 474.230204 553.251 
L 476.963265 545.1198 
L 479.696327 551.7264 
L 482.429388 555.8382 
L 487.89551 544.0572 
L 490.628571 550.3404 
L 493.361633 545.0274 
L 496.094694 552.9738 
L 498.827755 543.9648 
L 501.560816 541.701 
L 504.293878 551.4492 
L 507.026939 551.7726 
L 509.76 552.558 
L 512.493061 551.0796 
L 515.226122 546.3672 
L 517.959184 540.1764 
L 520.692245 547.5222 
L 523.425306 542.7174 
L 526.158367 548.0766 
L 528.891429 551.403 
L 531.62449 548.3076 
L 534.357551 552.2346 
L 537.090612 542.8098 
L 539.823673 546.7368 
L 542.556735 538.3746 
L 545.289796 545.9514 
L 548.022857 549.786 
L 550.755918 547.014 
L 553.48898 550.2942 
L 556.222041 547.1988 
L 558.955102 549.9708 
L 561.688163 548.5848 
L 564.421224 543.1332 
L 567.154286 549.9246 
L 569.887347 538.5132 
L 572.620408 550.248 
L 575.353469 542.5326 
L 578.086531 528.2568 
L 580.819592 549.5088 
L 583.552653 552.6504 
L 586.285714 547.5684 
L 589.018775 535.6026 
L 591.751837 546.783 
L 594.484898 543.78 
L 597.217959 546.7368 
L 602.684082 547.245 
L 605.417143 552.1422 
L 608.150204 541.1928 
L 610.883265 545.859 
L 613.616326 551.0796 
L 616.349388 548.862 
L 619.082449 552.1422 
L 621.81551 543.8262 
L 624.548571 548.0766 
L 627.281633 536.9886 
L 630.014694 545.4432 
L 632.747755 545.4894 
L 635.480816 546.1824 
L 638.213878 547.4298 
L 640.946939 551.865 
L 643.68 548.3538 
L 646.413061 542.2554 
L 649.146122 544.5654 
L 651.879184 542.7174 
L 654.612245 550.2018 
L 657.345306 551.2644 
L 660.078367 543.2256 
L 662.811429 545.3508 
L 665.54449 538.5594 
L 668.277551 546.9216 
L 671.010612 547.6608 
L 673.743673 556.023 
L 676.476735 549.0468 
L 679.209796 517.8618 
L 681.942857 549.274749 
L 684.675918 534.0318 
L 687.40898 547.2912 
L 690.142041 543.5028 
L 692.875102 542.2092 
L 695.608163 529.5042 
L 698.341224 520.5876 
L 701.074286 543.7338 
L 703.807347 551.9112 
L 706.540408 548.631 
L 709.273469 547.245 
L 712.006531 539.391 
L 714.739592 554.7294 
L 717.472653 541.47 
L 720.205714 548.5848 
L 722.938775 540.777 
L 725.671837 544.935 
L 728.404898 550.7562 
L 731.137959 540.6384 
L 733.87102 543.5952 
L 736.604082 549.1392 
L 739.337143 549.093 
L 744.803265 539.5758 
L 747.536326 548.5848 
L 750.269388 539.16 
L 753.002449 544.2882 
L 755.73551 540.0378 
L 758.468571 544.011 
L 761.201633 548.4924 
L 763.934694 546.9678 
L 766.667755 548.631 
L 769.400816 548.6772 
L 772.133878 551.4954 
L 774.866939 547.245 
L 777.6 545.397 
L 777.6 545.397 
" style="fill:none;stroke:#e377c2;stroke-linecap:square;stroke-width:1.5;"/>
   </g>
   <g id="patch_3">
    <path d="M 108 640.8 
L 108 86.4 
" style="fill:none;stroke:#000000;stroke-linecap:square;stroke-linejoin:miter;stroke-width:0.8;"/>
   </g>
   <g id="patch_4">
    <path d="M 777.6 640.8 
L 777.6 86.4 
" style="fill:none;stroke:#000000;stroke-linecap:square;stroke-linejoin:miter;stroke-width:0.8;"/>
   </g>
   <g id="patch_5">
    <path d="M 108 640.8 
L 777.6 640.8 
" style="fill:none;stroke:#000000;stroke-linecap:square;stroke-linejoin:miter;stroke-width:0.8;"/>
   </g>
   <g id="patch_6">
    <path d="M 108 86.4 
L 777.6 86.4 
" style="fill:none;stroke:#000000;stroke-linecap:square;stroke-linejoin:miter;stroke-width:0.8;"/>
   </g>
   <g id="text_32">
    <!-- CPU Usage (192.168.100.2) -->
    <defs>
     <path d="M 64.40625 67.28125 
L 64.40625 56.890625 
Q 59.421875 61.53125 53.78125 63.8125 
Q 48.140625 66.109375 41.796875 66.109375 
Q 29.296875 66.109375 22.65625 58.46875 
Q 16.015625 50.828125 16.015625 36.375 
Q 16.015625 21.96875 22.65625 14.328125 
Q 29.296875 6.6875 41.796875 6.6875 
Q 48.140625 6.6875 53.78125 8.984375 
Q 59.421875 11.28125 64.40625 15.921875 
L 64.40625 5.609375 
Q 59.234375 2.09375 53.4375 0.328125 
Q 47.65625 -1.421875 41.21875 -1.421875 
Q 24.65625 -1.421875 15.125 8.703125 
Q 5.609375 18.84375 5.609375 36.375 
Q 5.609375 53.953125 15.125 64.078125 
Q 24.65625 74.21875 41.21875 74.21875 
Q 47.75 74.21875 53.53125 72.484375 
Q 59.328125 70.75 64.40625 67.28125 
z
" id="DejaVuSans-67"/>
     <path d="M 19.671875 64.796875 
L 19.671875 37.40625 
L 32.078125 37.40625 
Q 38.96875 37.40625 42.71875 40.96875 
Q 46.484375 44.53125 46.484375 51.125 
Q 46.484375 57.671875 42.71875 61.234375 
Q 38.96875 64.796875 32.078125 64.796875 
z
M 9.8125 72.90625 
L 32.078125 72.90625 
Q 44.34375 72.90625 50.609375 67.359375 
Q 56.890625 61.8125 56.890625 51.125 
Q 56.890625 40.328125 50.609375 34.8125 
Q 44.34375 29.296875 32.078125 29.296875 
L 19.671875 29.296875 
L 19.671875 0 
L 9.8125 0 
z
" id="DejaVuSans-80"/>
     <path d="M 8.6875 72.90625 
L 18.609375 72.90625 
L 18.609375 28.609375 
Q 18.609375 16.890625 22.84375 11.734375 
Q 27.09375 6.59375 36.625 6.59375 
Q 46.09375 6.59375 50.34375 11.734375 
Q 54.59375 16.890625 54.59375 28.609375 
L 54.59375 72.90625 
L 64.5 72.90625 
L 64.5 27.390625 
Q 64.5 13.140625 57.4375 5.859375 
Q 50.390625 -1.421875 36.625 -1.421875 
Q 22.796875 -1.421875 15.734375 5.859375 
Q 8.6875 13.140625 8.6875 27.390625 
z
" id="DejaVuSans-85"/>
     <path d="M 44.28125 53.078125 
L 44.28125 44.578125 
Q 40.484375 46.53125 36.375 47.5 
Q 32.28125 48.484375 27.875 48.484375 
Q 21.1875 48.484375 17.84375 46.4375 
Q 14.5 44.390625 14.5 40.28125 
Q 14.5 37.15625 16.890625 35.375 
Q 19.28125 33.59375 26.515625 31.984375 
L 29.59375 31.296875 
Q 39.15625 29.25 43.1875 25.515625 
Q 47.21875 21.78125 47.21875 15.09375 
Q 47.21875 7.46875 41.1875 3.015625 
Q 35.15625 -1.421875 24.609375 -1.421875 
Q 20.21875 -1.421875 15.453125 -0.5625 
Q 10.6875 0.296875 5.421875 2 
L 5.421875 11.28125 
Q 10.40625 8.6875 15.234375 7.390625 
Q 20.0625 6.109375 24.8125 6.109375 
Q 31.15625 6.109375 34.5625 8.28125 
Q 37.984375 10.453125 37.984375 14.40625 
Q 37.984375 18.0625 35.515625 20.015625 
Q 33.0625 21.96875 24.703125 23.78125 
L 21.578125 24.515625 
Q 13.234375 26.265625 9.515625 29.90625 
Q 5.8125 33.546875 5.8125 39.890625 
Q 5.8125 47.609375 11.28125 51.796875 
Q 16.75 56 26.8125 56 
Q 31.78125 56 36.171875 55.265625 
Q 40.578125 54.546875 44.28125 53.078125 
z
" id="DejaVuSans-115"/>
     <path d="M 45.40625 27.984375 
Q 45.40625 37.75 41.375 43.109375 
Q 37.359375 48.484375 30.078125 48.484375 
Q 22.859375 48.484375 18.828125 43.109375 
Q 14.796875 37.75 14.796875 27.984375 
Q 14.796875 18.265625 18.828125 12.890625 
Q 22.859375 7.515625 30.078125 7.515625 
Q 37.359375 7.515625 41.375 12.890625 
Q 45.40625 18.265625 45.40625 27.984375 
z
M 54.390625 6.78125 
Q 54.390625 -7.171875 48.1875 -13.984375 
Q 42 -20.796875 29.203125 -20.796875 
Q 24.46875 -20.796875 20.265625 -20.09375 
Q 16.0625 -19.390625 12.109375 -17.921875 
L 12.109375 -9.1875 
Q 16.0625 -11.328125 19.921875 -12.34375 
Q 23.78125 -13.375 27.78125 -13.375 
Q 36.625 -13.375 41.015625 -8.765625 
Q 45.40625 -4.15625 45.40625 5.171875 
L 45.40625 9.625 
Q 42.625 4.78125 38.28125 2.390625 
Q 33.9375 0 27.875 0 
Q 17.828125 0 11.671875 7.65625 
Q 5.515625 15.328125 5.515625 27.984375 
Q 5.515625 40.671875 11.671875 48.328125 
Q 17.828125 56 27.875 56 
Q 33.9375 56 38.28125 53.609375 
Q 42.625 51.21875 45.40625 46.390625 
L 45.40625 54.6875 
L 54.390625 54.6875 
z
" id="DejaVuSans-103"/>
     <path d="M 31 75.875 
Q 24.46875 64.65625 21.28125 53.65625 
Q 18.109375 42.671875 18.109375 31.390625 
Q 18.109375 20.125 21.3125 9.0625 
Q 24.515625 -2 31 -13.1875 
L 23.1875 -13.1875 
Q 15.875 -1.703125 12.234375 9.375 
Q 8.59375 20.453125 8.59375 31.390625 
Q 8.59375 42.28125 12.203125 53.3125 
Q 15.828125 64.359375 23.1875 75.875 
z
" id="DejaVuSans-40"/>
     <path d="M 10.984375 1.515625 
L 10.984375 10.5 
Q 14.703125 8.734375 18.5 7.8125 
Q 22.3125 6.890625 25.984375 6.890625 
Q 35.75 6.890625 40.890625 13.453125 
Q 46.046875 20.015625 46.78125 33.40625 
Q 43.953125 29.203125 39.59375 26.953125 
Q 35.25 24.703125 29.984375 24.703125 
Q 19.046875 24.703125 12.671875 31.3125 
Q 6.296875 37.9375 6.296875 49.421875 
Q 6.296875 60.640625 12.9375 67.421875 
Q 19.578125 74.21875 30.609375 74.21875 
Q 43.265625 74.21875 49.921875 64.515625 
Q 56.59375 54.828125 56.59375 36.375 
Q 56.59375 19.140625 48.40625 8.859375 
Q 40.234375 -1.421875 26.421875 -1.421875 
Q 22.703125 -1.421875 18.890625 -0.6875 
Q 15.09375 0.046875 10.984375 1.515625 
z
M 30.609375 32.421875 
Q 37.25 32.421875 41.125 36.953125 
Q 45.015625 41.5 45.015625 49.421875 
Q 45.015625 57.28125 41.125 61.84375 
Q 37.25 66.40625 30.609375 66.40625 
Q 23.96875 66.40625 20.09375 61.84375 
Q 16.21875 57.28125 16.21875 49.421875 
Q 16.21875 41.5 20.09375 36.953125 
Q 23.96875 32.421875 30.609375 32.421875 
z
" id="DejaVuSans-57"/>
     <path d="M 8.015625 75.875 
L 15.828125 75.875 
Q 23.140625 64.359375 26.78125 53.3125 
Q 30.421875 42.28125 30.421875 31.390625 
Q 30.421875 20.453125 26.78125 9.375 
Q 23.140625 -1.703125 15.828125 -13.1875 
L 8.015625 -13.1875 
Q 14.5 -2 17.703125 9.0625 
Q 20.90625 20.125 20.90625 31.390625 
Q 20.90625 42.671875 17.703125 53.65625 
Q 14.5 64.65625 8.015625 75.875 
z
" id="DejaVuSans-41"/>
    </defs>
    <g transform="translate(359.515312 80.4)scale(0.12 -0.12)">
     <use xlink:href="#DejaVuSans-67"/>
     <use x="69.824219" xlink:href="#DejaVuSans-80"/>
     <use x="130.126953" xlink:href="#DejaVuSans-85"/>
     <use x="203.320312" xlink:href="#DejaVuSans-32"/>
     <use x="235.107422" xlink:href="#DejaVuSans-85"/>
     <use x="308.300781" xlink:href="#DejaVuSans-115"/>
     <use x="360.400391" xlink:href="#DejaVuSans-97"/>
     <use x="421.679688" xlink:href="#DejaVuSans-103"/>
     <use x="485.15625" xlink:href="#DejaVuSans-101"/>
     <use x="546.679688" xlink:href="#DejaVuSans-32"/>
     <use x="578.466797" xlink:href="#DejaVuSans-40"/>
     <use x="617.480469" xlink:href="#DejaVuSans-49"/>
     <use x="681.103516" xlink:href="#DejaVuSans-57"/>
     <use x="744.726562" xlink:href="#DejaVuSans-50"/>
     <use x="808.349609" xlink:href="#DejaVuSans-46"/>
     <use x="840.136719" xlink:href="#DejaVuSans-49"/>
     <use x="903.759766" xlink:href="#DejaVuSans-54"/>
     <use x="967.382812" xlink:href="#DejaVuSans-56"/>
     <use x="1031.005859" xlink:href="#DejaVuSans-46"/>
     <use x="1062.792969" xlink:href="#DejaVuSans-49"/>
     <use x="1126.416016" xlink:href="#DejaVuSans-48"/>
     <use x="1190.039062" xlink:href="#DejaVuSans-48"/>
     <use x="1253.662109" xlink:href="#DejaVuSans-46"/>
     <use x="1285.449219" xlink:href="#DejaVuSans-50"/>
     <use x="1349.072266" xlink:href="#DejaVuSans-41"/>
    </g>
   </g>
   <g id="legend_1">
    <g id="patch_7">
     <path d="M 702.448437 197.146875 
L 770.6 197.146875 
Q 772.6 197.146875 772.6 195.146875 
L 772.6 93.4 
Q 772.6 91.4 770.6 91.4 
L 702.448437 91.4 
Q 700.448437 91.4 700.448437 93.4 
L 700.448437 195.146875 
Q 700.448437 197.146875 702.448437 197.146875 
z
" style="fill:#ffffff;opacity:0.8;stroke:#cccccc;stroke-linejoin:miter;"/>
    </g>
    <g id="line2d_66">
     <path d="M 704.448437 99.498437 
L 724.448437 99.498437 
" style="fill:none;stroke:#1f77b4;stroke-linecap:square;stroke-width:1.5;"/>
    </g>
    <g id="line2d_67"/>
    <g id="text_33">
     <!-- iowait -->
     <defs>
      <path d="M 4.203125 54.6875 
L 13.1875 54.6875 
L 24.421875 12.015625 
L 35.59375 54.6875 
L 46.1875 54.6875 
L 57.421875 12.015625 
L 68.609375 54.6875 
L 77.59375 54.6875 
L 63.28125 0 
L 52.6875 0 
L 40.921875 44.828125 
L 29.109375 0 
L 18.5 0 
z
" id="DejaVuSans-119"/>
     </defs>
     <g transform="translate(732.448437 102.998437)scale(0.1 -0.1)">
      <use xlink:href="#DejaVuSans-105"/>
      <use x="27.783203" xlink:href="#DejaVuSans-111"/>
      <use x="88.964844" xlink:href="#DejaVuSans-119"/>
      <use x="170.751953" xlink:href="#DejaVuSans-97"/>
      <use x="232.03125" xlink:href="#DejaVuSans-105"/>
      <use x="259.814453" xlink:href="#DejaVuSans-116"/>
     </g>
    </g>
    <g id="line2d_68">
     <path d="M 704.448437 114.176562 
L 724.448437 114.176562 
" style="fill:none;stroke:#ff7f0e;stroke-linecap:square;stroke-width:1.5;"/>
    </g>
    <g id="line2d_69"/>
    <g id="text_34">
     <!-- irq -->
     <defs>
      <path d="M 41.109375 46.296875 
Q 39.59375 47.171875 37.8125 47.578125 
Q 36.03125 48 33.890625 48 
Q 26.265625 48 22.1875 43.046875 
Q 18.109375 38.09375 18.109375 28.8125 
L 18.109375 0 
L 9.078125 0 
L 9.078125 54.6875 
L 18.109375 54.6875 
L 18.109375 46.1875 
Q 20.953125 51.171875 25.484375 53.578125 
Q 30.03125 56 36.53125 56 
Q 37.453125 56 38.578125 55.875 
Q 39.703125 55.765625 41.0625 55.515625 
z
" id="DejaVuSans-114"/>
      <path d="M 14.796875 27.296875 
Q 14.796875 17.390625 18.875 11.75 
Q 22.953125 6.109375 30.078125 6.109375 
Q 37.203125 6.109375 41.296875 11.75 
Q 45.40625 17.390625 45.40625 27.296875 
Q 45.40625 37.203125 41.296875 42.84375 
Q 37.203125 48.484375 30.078125 48.484375 
Q 22.953125 48.484375 18.875 42.84375 
Q 14.796875 37.203125 14.796875 27.296875 
z
M 45.40625 8.203125 
Q 42.578125 3.328125 38.25 0.953125 
Q 33.9375 -1.421875 27.875 -1.421875 
Q 17.96875 -1.421875 11.734375 6.484375 
Q 5.515625 14.40625 5.515625 27.296875 
Q 5.515625 40.1875 11.734375 48.09375 
Q 17.96875 56 27.875 56 
Q 33.9375 56 38.25 53.625 
Q 42.578125 51.265625 45.40625 46.390625 
L 45.40625 54.6875 
L 54.390625 54.6875 
L 54.390625 -20.796875 
L 45.40625 -20.796875 
z
" id="DejaVuSans-113"/>
     </defs>
     <g transform="translate(732.448437 117.676562)scale(0.1 -0.1)">
      <use xlink:href="#DejaVuSans-105"/>
      <use x="27.783203" xlink:href="#DejaVuSans-114"/>
      <use x="68.880859" xlink:href="#DejaVuSans-113"/>
     </g>
    </g>
    <g id="line2d_70">
     <path d="M 704.448437 128.854687 
L 724.448437 128.854687 
" style="fill:none;stroke:#2ca02c;stroke-linecap:square;stroke-width:1.5;"/>
    </g>
    <g id="line2d_71"/>
    <g id="text_35">
     <!-- nice -->
     <defs>
      <path d="M 54.890625 33.015625 
L 54.890625 0 
L 45.90625 0 
L 45.90625 32.71875 
Q 45.90625 40.484375 42.875 44.328125 
Q 39.84375 48.1875 33.796875 48.1875 
Q 26.515625 48.1875 22.3125 43.546875 
Q 18.109375 38.921875 18.109375 30.90625 
L 18.109375 0 
L 9.078125 0 
L 9.078125 54.6875 
L 18.109375 54.6875 
L 18.109375 46.1875 
Q 21.34375 51.125 25.703125 53.5625 
Q 30.078125 56 35.796875 56 
Q 45.21875 56 50.046875 50.171875 
Q 54.890625 44.34375 54.890625 33.015625 
z
" id="DejaVuSans-110"/>
      <path d="M 48.78125 52.59375 
L 48.78125 44.1875 
Q 44.96875 46.296875 41.140625 47.34375 
Q 37.3125 48.390625 33.40625 48.390625 
Q 24.65625 48.390625 19.8125 42.84375 
Q 14.984375 37.3125 14.984375 27.296875 
Q 14.984375 17.28125 19.8125 11.734375 
Q 24.65625 6.203125 33.40625 6.203125 
Q 37.3125 6.203125 41.140625 7.25 
Q 44.96875 8.296875 48.78125 10.40625 
L 48.78125 2.09375 
Q 45.015625 0.34375 40.984375 -0.53125 
Q 36.96875 -1.421875 32.421875 -1.421875 
Q 20.0625 -1.421875 12.78125 6.34375 
Q 5.515625 14.109375 5.515625 27.296875 
Q 5.515625 40.671875 12.859375 48.328125 
Q 20.21875 56 33.015625 56 
Q 37.15625 56 41.109375 55.140625 
Q 45.0625 54.296875 48.78125 52.59375 
z
" id="DejaVuSans-99"/>
     </defs>
     <g transform="translate(732.448437 132.354687)scale(0.1 -0.1)">
      <use xlink:href="#DejaVuSans-110"/>
      <use x="63.378906" xlink:href="#DejaVuSans-105"/>
      <use x="91.162109" xlink:href="#DejaVuSans-99"/>
      <use x="146.142578" xlink:href="#DejaVuSans-101"/>
     </g>
    </g>
    <g id="line2d_72">
     <path d="M 704.448437 143.532812 
L 724.448437 143.532812 
" style="fill:none;stroke:#d62728;stroke-linecap:square;stroke-width:1.5;"/>
    </g>
    <g id="line2d_73"/>
    <g id="text_36">
     <!-- softirq -->
     <defs>
      <path d="M 37.109375 75.984375 
L 37.109375 68.5 
L 28.515625 68.5 
Q 23.6875 68.5 21.796875 66.546875 
Q 19.921875 64.59375 19.921875 59.515625 
L 19.921875 54.6875 
L 34.71875 54.6875 
L 34.71875 47.703125 
L 19.921875 47.703125 
L 19.921875 0 
L 10.890625 0 
L 10.890625 47.703125 
L 2.296875 47.703125 
L 2.296875 54.6875 
L 10.890625 54.6875 
L 10.890625 58.5 
Q 10.890625 67.625 15.140625 71.796875 
Q 19.390625 75.984375 28.609375 75.984375 
z
" id="DejaVuSans-102"/>
     </defs>
     <g transform="translate(732.448437 147.032812)scale(0.1 -0.1)">
      <use xlink:href="#DejaVuSans-115"/>
      <use x="52.099609" xlink:href="#DejaVuSans-111"/>
      <use x="113.28125" xlink:href="#DejaVuSans-102"/>
      <use x="148.470703" xlink:href="#DejaVuSans-116"/>
      <use x="187.679688" xlink:href="#DejaVuSans-105"/>
      <use x="215.462891" xlink:href="#DejaVuSans-114"/>
      <use x="256.560547" xlink:href="#DejaVuSans-113"/>
     </g>
    </g>
    <g id="line2d_74">
     <path d="M 704.448437 158.210937 
L 724.448437 158.210937 
" style="fill:none;stroke:#9467bd;stroke-linecap:square;stroke-width:1.5;"/>
    </g>
    <g id="line2d_75"/>
    <g id="text_37">
     <!-- steal -->
     <defs>
      <path d="M 9.421875 75.984375 
L 18.40625 75.984375 
L 18.40625 0 
L 9.421875 0 
z
" id="DejaVuSans-108"/>
     </defs>
     <g transform="translate(732.448437 161.710937)scale(0.1 -0.1)">
      <use xlink:href="#DejaVuSans-115"/>
      <use x="52.099609" xlink:href="#DejaVuSans-116"/>
      <use x="91.308594" xlink:href="#DejaVuSans-101"/>
      <use x="152.832031" xlink:href="#DejaVuSans-97"/>
      <use x="214.111328" xlink:href="#DejaVuSans-108"/>
     </g>
    </g>
    <g id="line2d_76">
     <path d="M 704.448437 172.889062 
L 724.448437 172.889062 
" style="fill:none;stroke:#8c564b;stroke-linecap:square;stroke-width:1.5;"/>
    </g>
    <g id="line2d_77"/>
    <g id="text_38">
     <!-- system -->
     <defs>
      <path d="M 32.171875 -5.078125 
Q 28.375 -14.84375 24.75 -17.8125 
Q 21.140625 -20.796875 15.09375 -20.796875 
L 7.90625 -20.796875 
L 7.90625 -13.28125 
L 13.1875 -13.28125 
Q 16.890625 -13.28125 18.9375 -11.515625 
Q 21 -9.765625 23.484375 -3.21875 
L 25.09375 0.875 
L 2.984375 54.6875 
L 12.5 54.6875 
L 29.59375 11.921875 
L 46.6875 54.6875 
L 56.203125 54.6875 
z
" id="DejaVuSans-121"/>
      <path d="M 52 44.1875 
Q 55.375 50.25 60.0625 53.125 
Q 64.75 56 71.09375 56 
Q 79.640625 56 84.28125 50.015625 
Q 88.921875 44.046875 88.921875 33.015625 
L 88.921875 0 
L 79.890625 0 
L 79.890625 32.71875 
Q 79.890625 40.578125 77.09375 44.375 
Q 74.3125 48.1875 68.609375 48.1875 
Q 61.625 48.1875 57.5625 43.546875 
Q 53.515625 38.921875 53.515625 30.90625 
L 53.515625 0 
L 44.484375 0 
L 44.484375 32.71875 
Q 44.484375 40.625 41.703125 44.40625 
Q 38.921875 48.1875 33.109375 48.1875 
Q 26.21875 48.1875 22.15625 43.53125 
Q 18.109375 38.875 18.109375 30.90625 
L 18.109375 0 
L 9.078125 0 
L 9.078125 54.6875 
L 18.109375 54.6875 
L 18.109375 46.1875 
Q 21.1875 51.21875 25.484375 53.609375 
Q 29.78125 56 35.6875 56 
Q 41.65625 56 45.828125 52.96875 
Q 50 49.953125 52 44.1875 
z
" id="DejaVuSans-109"/>
     </defs>
     <g transform="translate(732.448437 176.389062)scale(0.1 -0.1)">
      <use xlink:href="#DejaVuSans-115"/>
      <use x="52.099609" xlink:href="#DejaVuSans-121"/>
      <use x="111.279297" xlink:href="#DejaVuSans-115"/>
      <use x="163.378906" xlink:href="#DejaVuSans-116"/>
      <use x="202.587891" xlink:href="#DejaVuSans-101"/>
      <use x="264.111328" xlink:href="#DejaVuSans-109"/>
     </g>
    </g>
    <g id="line2d_78">
     <path d="M 704.448437 187.567187 
L 724.448437 187.567187 
" style="fill:none;stroke:#e377c2;stroke-linecap:square;stroke-width:1.5;"/>
    </g>
    <g id="line2d_79"/>
    <g id="text_39">
     <!-- user -->
     <defs>
      <path d="M 8.5 21.578125 
L 8.5 54.6875 
L 17.484375 54.6875 
L 17.484375 21.921875 
Q 17.484375 14.15625 20.5 10.265625 
Q 23.53125 6.390625 29.59375 6.390625 
Q 36.859375 6.390625 41.078125 11.03125 
Q 45.3125 15.671875 45.3125 23.6875 
L 45.3125 54.6875 
L 54.296875 54.6875 
L 54.296875 0 
L 45.3125 0 
L 45.3125 8.40625 
Q 42.046875 3.421875 37.71875 1 
Q 33.40625 -1.421875 27.6875 -1.421875 
Q 18.265625 -1.421875 13.375 4.4375 
Q 8.5 10.296875 8.5 21.578125 
z
M 31.109375 56 
z
" id="DejaVuSans-117"/>
     </defs>
     <g transform="translate(732.448437 191.067187)scale(0.1 -0.1)">
      <use xlink:href="#DejaVuSans-117"/>
      <use x="63.378906" xlink:href="#DejaVuSans-115"/>
      <use x="115.478516" xlink:href="#DejaVuSans-101"/>
      <use x="177.001953" xlink:href="#DejaVuSans-114"/>
     </g>
    </g>
   </g>
  </g>
 </g>
 <defs>
  <clipPath id="pe60673161e">
   <rect height="554.4" width="669.6" x="108" y="86.4"/>
  </clipPath>
 </defs>
</svg>
